<?xml version="1.0" encoding="UTF-8" standalone="no"?>
<svg
   xmlns:dc="http://purl.org/dc/elements/1.1/"
   xmlns:cc="http://creativecommons.org/ns#"
   xmlns:rdf="http://www.w3.org/1999/02/22-rdf-syntax-ns#"
   xmlns:svg="http://www.w3.org/2000/svg"
   xmlns="http://www.w3.org/2000/svg"
   xmlns:xlink="http://www.w3.org/1999/xlink"
   xmlns:sodipodi="http://sodipodi.sourceforge.net/DTD/sodipodi-0.dtd"
   xmlns:inkscape="http://www.inkscape.org/namespaces/inkscape"
   width="345.18"
   height="473.488"
   viewBox="0 0 91.329 125.277"
   version="1.1"
   id="svg707"
   sodipodi:docname="Seal of Lumajang Regency (1).svg"
   inkscape:version="1.0.1 (3bc2e813f5, 2020-09-07)">
  <metadata
     id="metadata711">
    <rdf:RDF>
      <cc:Work
         rdf:about="">
        <dc:format>image/svg+xml</dc:format>
        <dc:type
           rdf:resource="http://purl.org/dc/dcmitype/StillImage" />
      </cc:Work>
    </rdf:RDF>
  </metadata>
  <sodipodi:namedview
     pagecolor="#ffffff"
     bordercolor="#666666"
     borderopacity="1"
     objecttolerance="10"
     gridtolerance="10"
     guidetolerance="10"
     inkscape:pageopacity="0"
     inkscape:pageshadow="2"
     inkscape:window-width="1366"
     inkscape:window-height="705"
     id="namedview709"
     showgrid="false"
     inkscape:zoom="0.9502563"
     inkscape:cx="89.184407"
     inkscape:cy="196.13803"
     inkscape:window-x="-8"
     inkscape:window-y="-8"
     inkscape:window-maximized="1"
     inkscape:current-layer="svg707" />
  <style
     id="style2"><![CDATA[.B{stroke-width:.265}.C{fill:#e9e9e9}.D{stroke:#d8d8d8}.E{fill:#fefefe}.F{fill:#fff}.G{stroke:#afafaf}.H{fill:#018f50}.I{stroke:#005b31}.J{fill:#00a75d}.K{fill:none}.L{stroke:#3a2221}.M{fill:#472928}.N{stroke-width:.05}.O{fill-rule:evenodd}.P{fill:#ffeba3}.Q{opacity:.998}.R{fill:#f5c742}.S{stroke-opacity:1}.T{stroke-linejoin:round}]]></style>
  <defs
     id="defs35">
    <pattern
       xlink:href="#C"
       id="A"
       patternTransform="matrix(0.06071082,8.7033342e-5,-1.2940334e-4,0.09026595,45.745656,61.378895)" />
    <linearGradient
       id="B"
       x1="104.579"
       y1="174.681"
       x2="104.579"
       y2="182.522"
       gradientUnits="userSpaceOnUse"
       gradientTransform="translate(-59.335,-134.988)">
      <stop
         offset="0"
         stop-color="red"
         id="stop5" />
      <stop
         offset="1"
         stop-color="#ff6200"
         id="stop7" />
    </linearGradient>
    <pattern
       patternUnits="userSpaceOnUse"
       width="42.931"
       height="42.932"
       patternTransform="translate(162.12948,826.05215)"
       id="C">
      <g
         stroke-width="3.647"
         stroke-miterlimit="4"
         stroke-dasharray="none"
         id="g18">
        <path
           d="M0 0h42.931v42.931H0z"
           fill="#125034"
           fill-opacity="1"
           stroke="none"
           stroke-linecap="round"
           class="O Q S T"
           id="path10" />
        <g
           stroke="#fff"
           stroke-linecap="butt"
           stroke-linejoin="miter"
           class="K"
           id="g16">
          <path
             d="M0 21.466h42.931"
             class="S"
             id="path12" />
          <path
             d="M21.466 42.932V0"
             class="S"
             id="path14" />
        </g>
      </g>
    </pattern>
    <path
       id="D"
       d="M16.443 173.874h-.965l-.384-.998h-1.756l-.363.998h-.941l1.711-4.394h.938zm-1.634-1.738l-.605-1.631-.593 1.631z" />
    <path
       id="E"
       d="M21.341 169.48h.887v2.38q0 .566.033.734.057.27.27.435.216.162.587.162.378 0 .569-.153.192-.156.231-.381.039-.225.039-.746v-2.431h.887v2.308q0 .791-.072 1.118-.072.327-.267.552-.192.225-.516.36-.324.132-.845.132-.629 0-.956-.144-.324-.147-.513-.378-.189-.234-.249-.489-.087-.378-.087-1.115z" />
    <path
       id="F"
       d="M41.249 173.874v-4.394h.863l1.798 2.934v-2.934h.824v4.394h-.89l-1.771-2.865v2.865z" />
    <path
       id="G"
       d="M230.52 203.96c12.684.353 11.772 4.53 13.664 7.918-9.183.753-7.626-6.922-13.664-7.918z" />
    <path
       id="H"
       d="M232.057 204.294c8.6 1.925 7.513 5.041 11.827 7.417" />
    <path
       id="I"
       d="M237.786 207.961c.929-.063 1.778.004 2.397.451-.227-.658-.234-1.218.184-1.587" />
    <path
       id="J"
       d="M236.266 206.833c.823-.506 1.551-.296 2.263.033-.063-.333-.346-.694.259-.944" />
    <path
       id="K"
       d="M236.92 205.04c-.724-.139-.165.493-.024.874" />
    <path
       id="L"
       d="M88.667 229.017c4.319.473 4.514-2.251 8.386.501-3.829 2.074-6.125.824-8.386-.501z" />
    <path
       id="M"
       d="M91.021 229.349c1.681-.525 3.339-.928 4.772-.213l-4.772.213z" />
    <path
       id="N"
       d="M115.89 169.783c-1.18.006-1.984-1.945-.618-3.324.569-2.76 2.468-2.764 4.176-2.522 1.544-.346 2.402-.204 2.255.651l-1.62 3.842z" />
    <path
       id="O"
       d="M122.094 170.963c1.849-5.771.241-5.013.071-6.969-1.461.036-2.059.775-1.819 2.197-.824-.145-1.168-.481-2.551-.402v2.079c-.922-.077-1.825.08-2.622 1.559 2.307 3.017 4.614 1.507 6.922 1.536z" />
    <path
       id="P"
       d="M116.23 169.107c.901-.578 1.802-1.159 2.79-1.086-.687-.286-.483-.939-.451-1.52.886-.133 1.51.11 2.088.418.178-1.231.664-1.538 1.002-2.288-.04 1.223 1.107 1.801-.317 3.775 0 0-4.076 2.205-5.112.702z" />
    <path
       id="Q"
       d="M116.993 164.671c-.37.362-.661.83-.859 1.297-.257.458-.762.72-.958 1.223-.42.484.197 1.022.681.684.373-.327 1.034-.048 1.224-.602.181-.542-.042-1.208.324-1.681.552-.399 1.294-.385 1.927-.215.612.096.706-.727.912-1.132-.978-.155-1.927.218-2.874.393-.126.004-.256-.01-.377.032z" />
  </defs>
  <g
     id="g1922">
    <path
       d="m 45.665,1.056 -44.631,17.553 6.771,91.804 37.86,13.818 37.861,-13.819 6.771,-91.804 z"
       stroke="#ff0000"
       stroke-width="1.965"
       class="F"
       id="path37" />
    <path
       d="m 45.665,4.126 -41.627,16.37 6.481,87.865 35.146,12.829 35.146,-12.829 6.481,-87.865 z"
       fill="#125034"
       id="path39" />
  </g>
  <g
     id="g1883">
    <path
       d="m 37.17,21.881 5.081,3.747 -0.002,0.008"
       class="P"
       id="path41" />
    <path
       d="m 45.663,15.661 -0.009,0.029 -2.153,6.172 -0.004,0.009 -6.358,-0.014 0.032,0.024 5.079,3.755 -1.856,6.242 0.04,-0.026 5.221,-3.755 0.009,-0.008 5.275,3.561 -0.004,-0.011 -1.941,-6.07 0.002,-10e-4 5.188,-3.704 0.009,-0.007 -6.34,0.014 h -0.015 z"
       class="F"
       id="path43" />
    <path
       fill="#a07843"
       d="m 40.393,32.255 c -0.076,0 -0.153,-0.023 -0.218,-0.069 -0.131,-0.093 -0.189,-0.26 -0.143,-0.415 l 1.78,-5.99 -4.898,-3.621 c -0.131,-0.097 -0.185,-0.267 -0.134,-0.421 0.051,-0.154 0.195,-0.259 0.358,-0.259 h 0.001 l 6.091,0.014 2.079,-5.957 c 0.053,-0.151 0.195,-0.252 0.356,-0.252 v 0 c 0.16,0 0.303,0.101 0.356,0.252 l 2.087,5.958 6.087,-0.014 h 10e-4 c 0.164,0 0.309,0.106 0.359,0.261 0.05,0.155 -0.006,0.326 -0.139,0.422 l -4.977,3.552 1.844,5.77 c 0.024,0.049 0.037,0.105 0.037,0.163 0,0.208 -0.169,0.377 -0.377,0.377 a 0.36,0.36 0 0 1 -0.099,-0.014 c -0.04,-0.011 -0.079,-0.027 -0.115,-0.051 l -5.056,-3.413 -5.056,3.636 c -0.064,0.047 -0.141,0.07 -0.219,0.07 z m -2.108,-10.018 4.188,3.097 c 0.127,0.094 0.182,0.258 0.137,0.41 l -1.541,5.186 4.365,-3.139 c 0.128,-0.092 0.31,-0.102 0.441,-0.014 l 4.373,2.952 -1.612,-5.045 c -0.049,-0.155 0.006,-0.324 0.137,-0.419 l 4.242,-3.028 -5.16,0.011 h -10e-4 c -0.16,0 -0.317,-0.101 -0.369,-0.252 l -1.82,-5.194 -1.809,5.183 a 0.39,0.39 0 0 1 -0.359,0.262 h -10e-4 l -5.211,-0.011 z"
       id="path45" />
    <path
       d="m 45.653,24.526 2.2,-2.655 h -0.015 l -2.176,-6.21 -0.009,0.029 z"
       class="R"
       id="path47" />
    <g
       class="P"
       id="g53"
       transform="translate(-59.335,-134.988)">
      <path
         d="m 101.584,160.624 3.404,-1.103 v -0.007 l -8.484,-2.645 5.081,3.747 z"
         id="path49" />
      <path
         d="m 104.988,150.678 -2.153,6.172 2.148,2.663 0.006,0.002 z"
         id="path51" />
    </g>
    <path
       d="m 37.17,21.881 8.478,2.644 -2.148,-2.663 -0.004,0.009 -6.358,-0.014 z"
       class="R"
       id="path55" />
    <path
       d="m 47.854,21.871 -2.195,2.649 8.525,-2.655 0.009,-0.007 z"
       class="P"
       id="path57" />
    <path
       d="m 48.995,25.568 5.188,-3.704 -8.525,2.655 -0.006,0.006 v 0 z"
       class="R"
       id="path59" />
    <path
       d="m 45.653,24.533 5.281,7.105 -1.941,-6.07 0.002,-0.001 -3.342,-1.042 z"
       class="P"
       id="path61" />
    <path
       d="m 50.938,31.65 -0.004,-0.011 -5.281,-7.105 v 3.564 l 0.009,-0.008 z m -10.545,0.228 0.04,-0.026 5.204,-7.312 -3.387,1.097 z"
       class="R"
       id="path63" />
    <path
       d="m 45.653,28.097 v -3.563 l -0.017,0.006 -5.204,7.312 z"
       class="P"
       id="path65" />
  </g>
  <g
     id="g1918">
    <g
       transform="rotate(-20.71,-399.04708,94.869598)"
       id="g83"
       style="fill:#ffffff;">
      <path
         d="m 8.06,173.874 v -4.394 h 0.887 v 1.951 l 1.792,-1.951 h 1.193 l -1.655,1.711 1.744,2.683 h -1.148 l -1.208,-2.062 -0.719,0.734 v 1.328 z"
         id="path67" />
      <path
         id="use69"
         d="m 16.443,173.874 h -0.965 l -0.384,-0.998 h -1.756 l -0.363,0.998 h -0.941 l 1.711,-4.394 h 0.938 z m -1.634,-1.738 -0.605,-1.631 -0.593,1.631 z" />
      <path
         d="m 16.917,169.48 h 1.756 q 0.522,0 0.776,0.045 0.258,0.042 0.459,0.18 0.204,0.138 0.339,0.369 0.135,0.228 0.135,0.513 0,0.309 -0.168,0.566 -0.165,0.258 -0.45,0.387 0.402,0.117 0.617,0.399 0.216,0.282 0.216,0.662 0,0.3 -0.141,0.584 -0.138,0.282 -0.381,0.453 -0.24,0.168 -0.593,0.207 -0.222,0.024 -1.07,0.03 h -1.496 z m 0.887,0.731 v 1.016 h 0.581 q 0.519,0 0.644,-0.015 0.228,-0.027 0.357,-0.156 0.132,-0.132 0.132,-0.345 0,-0.204 -0.114,-0.33 -0.111,-0.129 -0.333,-0.156 -0.132,-0.015 -0.758,-0.015 z m 0,1.747 v 1.175 h 0.821 q 0.48,0 0.608,-0.027 0.198,-0.036 0.321,-0.174 0.126,-0.141 0.126,-0.375 0,-0.198 -0.096,-0.336 -0.096,-0.138 -0.279,-0.201 -0.18,-0.063 -0.785,-0.063 z"
         id="path71" />
      <path
         id="use73"
         d="m 21.341,169.48 h 0.887 v 2.38 q 0,0.566 0.033,0.734 0.057,0.27 0.27,0.435 0.216,0.162 0.587,0.162 0.378,0 0.569,-0.153 0.192,-0.156 0.231,-0.381 0.039,-0.225 0.039,-0.746 v -2.431 h 0.887 v 2.308 q 0,0.791 -0.072,1.118 -0.072,0.327 -0.267,0.552 -0.192,0.225 -0.516,0.36 -0.324,0.132 -0.845,0.132 -0.629,0 -0.956,-0.144 -0.324,-0.147 -0.513,-0.378 -0.189,-0.234 -0.249,-0.489 -0.087,-0.378 -0.087,-1.115 z" />
      <path
         d="m 25.78,173.874 v -4.394 h 1.424 q 0.809,0 1.055,0.066 0.378,0.099 0.632,0.432 0.255,0.33 0.255,0.854 0,0.405 -0.147,0.68 -0.147,0.276 -0.375,0.435 -0.225,0.156 -0.459,0.207 -0.318,0.063 -0.92,0.063 h -0.578 v 1.658 z m 0.887,-3.651 v 1.247 h 0.486 q 0.525,0 0.701,-0.069 0.177,-0.069 0.276,-0.216 0.102,-0.147 0.102,-0.342 0,-0.24 -0.141,-0.396 -0.141,-0.156 -0.357,-0.195 -0.159,-0.03 -0.638,-0.03 z"
         id="path75" />
      <path
         id="use77"
         d="m 33.381,173.874 h -0.965 l -0.384,-0.998 h -1.756 l -0.363,0.998 h -0.941 l 1.711,-4.394 h 0.938 z m -1.634,-1.738 -0.605,-1.631 -0.593,1.631 z" />
      <path
         d="m 34.385,173.874 v -3.651 h -1.304 v -0.743 h 3.492 v 0.743 h -1.301 v 3.651 z m 2.761,0 v -4.394 h 3.258 v 0.743 h -2.371 v 0.974 h 2.206 v 0.74 h -2.206 v 1.196 h 2.455 v 0.74 z"
         id="path79" />
      <path
         id="use81"
         d="m 41.249,173.874 v -4.394 h 0.863 l 1.798,2.934 v -2.934 h 0.824 v 4.394 h -0.89 l -1.771,-2.865 v 2.865 z" />
    </g>
    <g
       transform="rotate(21.181,331.54051,-225.65338)"
       id="g97"
       style="fill:#ffffff;">
      <path
         d="m 153.47,97.987 v -4.358 h 0.887 v 3.618 h 2.206 v 0.74 z"
         id="path85" />
      <path
         id="use87"
         d="m 157.19,93.592999 h 0.887 v 2.38 q 0,0.566 0.033,0.734 0.057,0.27 0.27,0.435 0.216,0.162 0.587,0.162 0.378,0 0.569,-0.153 0.192,-0.156 0.231,-0.381 0.039,-0.225 0.039,-0.746 v -2.431 h 0.887 v 2.308 q 0,0.791 -0.072,1.118 -0.072,0.327 -0.267,0.552 -0.192,0.225 -0.516,0.36 -0.324,0.132 -0.845,0.132 -0.629,0 -0.956,-0.144 -0.324,-0.147 -0.513,-0.378 -0.189,-0.234 -0.249,-0.489 -0.087,-0.378 -0.087,-1.115 z" />
      <path
         d="m 161.617,97.987 v -4.394 h 1.328 l 0.797,2.997 0.788,-2.997 h 1.331 v 4.394 h -0.824 v -3.459 l -0.872,3.459 h -0.854 l -0.869,-3.459 v 3.459 z m 9.088,0 h -0.965 l -0.384,-0.998 H 167.6 l -0.363,0.998 h -0.941 l 1.711,-4.394 h 0.938 z m -1.634,-1.738 -0.605,-1.631 -0.593,1.631 z m 3.69,-2.656 h 0.884 v 2.782 q 0,0.546 -0.096,0.839 -0.129,0.384 -0.468,0.617 -0.339,0.231 -0.893,0.231 -0.65,0 -1.001,-0.363 -0.351,-0.366 -0.354,-1.07 l 0.836,-0.096 q 0.015,0.378 0.111,0.534 0.144,0.237 0.438,0.237 0.297,0 0.42,-0.168 0.123,-0.171 0.123,-0.704 z"
         id="path89" />
      <path
         id="use91"
         d="m 178.55199,97.986999 h -0.965 l -0.384,-0.998 h -1.756 l -0.363,0.998 h -0.941 l 1.711,-4.394 h 0.938 z m -1.634,-1.738 -0.605,-1.631 -0.593,1.631 z" />
      <path
         id="use93"
         d="m 179.031,97.986999 v -4.394 h 0.863 l 1.798,2.934 v -2.934 h 0.824 v 4.394 h -0.89 l -1.771,-2.865 v 2.865 z" />
      <path
         d="m 185.5,96.372 v -0.74 h 1.912 v 1.75 q -0.279,0.27 -0.809,0.477 -0.528,0.204 -1.07,0.204 -0.689,0 -1.202,-0.288 -0.513,-0.291 -0.77,-0.827 -0.258,-0.54 -0.258,-1.172 0,-0.686 0.288,-1.22 0.288,-0.534 0.842,-0.818 0.423,-0.219 1.052,-0.219 0.818,0 1.277,0.345 0.462,0.342 0.593,0.947 l -0.881,0.165 q -0.093,-0.324 -0.351,-0.51 -0.255,-0.189 -0.638,-0.189 -0.581,0 -0.926,0.369 -0.342,0.369 -0.342,1.094 0,0.782 0.348,1.175 0.348,0.39 0.911,0.39 0.279,0 0.558,-0.108 0.282,-0.111 0.483,-0.267 v -0.558 z"
         id="path95" />
    </g>
  </g>
  <g
     id="g2908">
    <path
       id="circle99"
       style="opacity:0.999;fill:#ffffff;fill-rule:evenodd"
       d="M 64.708,60.972008 A 19.042999,19.042999 0 0 1 45.665001,80.015007 19.042999,19.042999 0 0 1 26.622002,60.972008 a 19.042999,19.042999 0 0 1 19.042999,-19.043 19.042999,19.042999 0 0 1 19.042999,19.043 z"
       class="O" />
    <path
       d="M 43.887,47.261 C 40.191,56.262 31.694,61.515 27.906,63.165 H 45.421 45.91 63.425 C 59.637,61.515 51.14,56.261 47.444,47.261 H 45.91 45.421 Z"
       fill="#0093dd"
       id="path103" />
    <path
       d="m 45.707,30.544 c -0.323,0.035 -0.922,0.799 -0.942,1.149 -0.446,0.962 0.417,1.835 0.268,2.707 -0.499,0.789 -1.225,1.466 -1.408,2.425 -0.362,0.961 -0.606,1.953 -0.819,2.96 -0.181,0.96 -0.869,0.045 -0.808,-0.475 0.094,-1.062 -0.149,-2.18 0.208,-3.214 0.512,-0.756 0.486,-1.863 -0.076,-2.569 -0.473,0.659 -0.775,1.593 -0.875,2.427 0.157,0.969 0.453,2.023 -0.371,2.81 -0.548,0.467 -0.474,1.577 -1.144,1.779 -0.266,-1.33 0.165,-2.752 -0.411,-4.032 0.005,0.188 -0.291,1.23 -0.7,1.609 -0.529,0.693 -1.304,1.373 -1.169,2.342 0.126,1.127 -0.153,2.224 -0.546,3.291 -0.346,0.94 -0.653,2.01 -0.136,3.012 0.536,1.038 1.408,1.919 2.616,1.912 0.954,0.118 1.873,-0.161 2.72,-0.582 3.051,-1.179 4.723,-0.296 7.304,0.543 1.012,0.328 2.63,0.246 3.664,-0.105 0.703,-0.467 1.184,-1.282 1.516,-2.049 -0.051,-0.921 0.439,-1.851 0.12,-2.755 -0.838,-1.21 -0.847,-2.73 -1.205,-4.107 l -0.957,-3.198 c -0.241,-0.931 -0.461,0.094 -0.434,0.53 0.066,0.98 0.804,1.954 -0.005,2.861 -0.369,0.221 -0.563,1.831 -0.88,0.91 -0.455,-0.874 -0.735,-1.829 -0.973,-2.776 -0.179,-1.036 -0.012,-2.131 -0.562,-3.084 -0.396,-1.421 -1.042,0.3 -0.795,0.962 0.137,1.185 0.139,2.399 -0.262,3.537 0.074,0.727 -0.554,0.748 -0.535,0.031 -0.148,-0.96 -0.892,-1.676 -1.386,-2.478 -0.698,-0.676 -0.679,-1.844 -0.076,-2.572 l 0.125,-0.067 0.069,-0.117 c 0.072,-1.124 -0.969,-1.978 -0.948,-3.107 0.048,-0.392 -0.042,-0.527 -0.189,-0.511 z m 0.301,11.634 c 0.917,0.913 1.915,1.568 3.274,1.069 0.008,1.225 1.806,2.188 2.807,2.439 -3.005,1.13 -3.502,-0.038 -4.477,-0.768 -0.335,0.329 -1.839,1.58 -3.274,0.067 -0.655,0.351 -2.527,1.747 -4.443,0.267 0.932,-0.568 1.856,-1.153 2.439,-2.505 1.889,1.298 2.851,0.068 3.675,-0.568 z"
       fill="url(#B)"
       id="path105"
       style="fill:url(#B);" />
    <path
       d="M 64.581015,63.165864 H 26.748509 c 1.114161,9.603846 9.247981,16.848667 18.916121,16.848667 9.668139,0 17.80196,-7.244821 18.916121,-16.848667 z"
       fill="url(#A)"
       class="O Q"
       id="path107"
       style="stroke-width:0.264583;" />
    <g
       transform="matrix(0.225587,0.892652,-1.056011,0.254227,198.0417,-219.08975)"
       class="L"
       id="g121">
      <path
         id="use109"
         d="m 230.52,203.96 c 12.684,0.353 11.772,4.53 13.664,7.918 -9.183,0.753 -7.626,-6.922 -13.664,-7.918 z"
         style="fill:#472928;stroke-width:0.265" />
      <g
         class="K N"
         id="g119">
        <path
           id="use111"
           d="m 232.057,204.294 c 8.6,1.925 7.513,5.041 11.827,7.417" />
        <path
           id="use113"
           d="m 237.786,207.961 c 0.929,-0.063 1.778,0.004 2.397,0.451 -0.227,-0.658 -0.234,-1.218 0.184,-1.587" />
        <path
           id="use115"
           d="m 236.266,206.833 c 0.823,-0.506 1.551,-0.296 2.263,0.033 -0.063,-0.333 -0.346,-0.694 0.259,-0.944" />
        <path
           id="use117"
           d="m 236.92,205.04 c -0.724,-0.139 -0.165,0.493 -0.024,0.874" />
      </g>
    </g>
    <g
       transform="matrix(0.516415,0.762255,-0.906062,0.599035,93.67433,-251.61981)"
       class="L"
       id="g135">
      <path
         id="use123"
         d="m 230.52,203.96 c 12.684,0.353 11.772,4.53 13.664,7.918 -9.183,0.753 -7.626,-6.922 -13.664,-7.918 z"
         style="fill:#472928;stroke-width:0.265" />
      <g
         class="K N"
         id="g133">
        <path
           id="use125"
           d="m 232.057,204.294 c 8.6,1.925 7.513,5.041 11.827,7.417" />
        <path
           id="use127"
           d="m 237.786,207.961 c 0.929,-0.063 1.778,0.004 2.397,0.451 -0.227,-0.658 -0.234,-1.218 0.184,-1.587" />
        <path
           id="use129"
           d="m 236.266,206.833 c 0.823,-0.506 1.551,-0.296 2.263,0.033 -0.063,-0.333 -0.346,-0.694 0.259,-0.944" />
        <path
           id="use131"
           d="m 236.92,205.04 c -0.724,-0.139 -0.165,0.493 -0.024,0.874" />
      </g>
    </g>
    <g
       transform="matrix(0.844977,0.466739,-0.54143,0.884395,-60.65357,-231.36839)"
       class="L"
       id="g149">
      <path
         id="use137"
         d="m 230.52,203.96 c 12.684,0.353 11.772,4.53 13.664,7.918 -9.183,0.753 -7.626,-6.922 -13.664,-7.918 z"
         style="fill:#472928;stroke-width:0.265" />
      <g
         class="K N"
         id="g147">
        <path
           id="use139"
           d="m 232.057,204.294 c 8.6,1.925 7.513,5.041 11.827,7.417" />
        <path
           id="use141"
           d="m 237.786,207.961 c 0.929,-0.063 1.778,0.004 2.397,0.451 -0.227,-0.658 -0.234,-1.218 0.184,-1.587" />
        <path
           id="use143"
           d="m 236.266,206.833 c 0.823,-0.506 1.551,-0.296 2.263,0.033 -0.063,-0.333 -0.346,-0.694 0.259,-0.944" />
        <path
           id="use145"
           d="m 236.92,205.04 c -0.724,-0.139 -0.165,0.493 -0.024,0.874" />
      </g>
    </g>
    <g
       class="L"
       id="g163"
       transform="translate(-59.335,-134.988)">
      <path
         id="use151"
         d="m 84.260005,203.96 c 12.684,0.353 11.772,4.53 13.664,7.918 -9.183,0.753 -7.626,-6.922 -13.664,-7.918 z"
         style="fill:#472928;stroke-width:0.265" />
      <g
         class="K N"
         id="g161">
        <path
           id="use153"
           d="m 85.797005,204.294 c 8.6,1.925 7.513,5.041 11.827,7.417" />
        <path
           id="use155"
           d="m 91.526005,207.961 c 0.929,-0.063 1.778,0.004 2.397,0.451 -0.227,-0.658 -0.234,-1.218 0.184,-1.587" />
        <path
           id="use157"
           d="m 90.006005,206.833 c 0.823,-0.506 1.551,-0.296 2.263,0.033 -0.063,-0.333 -0.346,-0.694 0.259,-0.944" />
        <path
           id="use159"
           d="m 90.660005,205.04 c -0.724,-0.139 -0.165,0.493 -0.024,0.874" />
      </g>
    </g>
    <g
       transform="matrix(-0.225587,0.892652,1.056011,0.254227,-106.7109,-219.08975)"
       class="L"
       id="g177">
      <path
         id="use165"
         d="m 230.52,203.96 c 12.684,0.353 11.772,4.53 13.664,7.918 -9.183,0.753 -7.626,-6.922 -13.664,-7.918 z"
         style="fill:#472928;stroke-width:0.265" />
      <g
         class="K N"
         id="g175">
        <path
           id="use167"
           d="m 232.057,204.294 c 8.6,1.925 7.513,5.041 11.827,7.417" />
        <path
           id="use169"
           d="m 237.786,207.961 c 0.929,-0.063 1.778,0.004 2.397,0.451 -0.227,-0.658 -0.234,-1.218 0.184,-1.587" />
        <path
           id="use171"
           d="m 236.266,206.833 c 0.823,-0.506 1.551,-0.296 2.263,0.033 -0.063,-0.333 -0.346,-0.694 0.259,-0.944" />
        <path
           id="use173"
           d="m 236.92,205.04 c -0.724,-0.139 -0.165,0.493 -0.024,0.874" />
      </g>
    </g>
    <g
       transform="matrix(-0.516415,0.762255,0.906062,0.599035,-2.34353,-251.61981)"
       class="L"
       id="g191">
      <path
         id="use179"
         d="m 230.52,203.96 c 12.684,0.353 11.772,4.53 13.664,7.918 -9.183,0.753 -7.626,-6.922 -13.664,-7.918 z"
         style="fill:#472928;stroke-width:0.265" />
      <g
         class="K N"
         id="g189">
        <path
           id="use181"
           d="m 232.057,204.294 c 8.6,1.925 7.513,5.041 11.827,7.417" />
        <path
           id="use183"
           d="m 237.786,207.961 c 0.929,-0.063 1.778,0.004 2.397,0.451 -0.227,-0.658 -0.234,-1.218 0.184,-1.587" />
        <path
           id="use185"
           d="m 236.266,206.833 c 0.823,-0.506 1.551,-0.296 2.263,0.033 -0.063,-0.333 -0.346,-0.694 0.259,-0.944" />
        <path
           id="use187"
           d="m 236.92,205.04 c -0.724,-0.139 -0.165,0.493 -0.024,0.874" />
      </g>
    </g>
    <g
       transform="matrix(-0.844977,0.466739,0.54143,0.884395,151.98437,-231.36839)"
       class="L"
       id="g205">
      <path
         id="use193"
         d="m 230.52,203.96 c 12.684,0.353 11.772,4.53 13.664,7.918 -9.183,0.753 -7.626,-6.922 -13.664,-7.918 z"
         style="fill:#472928;stroke-width:0.265" />
      <g
         class="K N"
         id="g203">
        <path
           id="use195"
           d="m 232.057,204.294 c 8.6,1.925 7.513,5.041 11.827,7.417" />
        <path
           id="use197"
           d="m 237.786,207.961 c 0.929,-0.063 1.778,0.004 2.397,0.451 -0.227,-0.658 -0.234,-1.218 0.184,-1.587" />
        <path
           id="use199"
           d="m 236.266,206.833 c 0.823,-0.506 1.551,-0.296 2.263,0.033 -0.063,-0.333 -0.346,-0.694 0.259,-0.944" />
        <path
           id="use201"
           d="m 236.92,205.04 c -0.724,-0.139 -0.165,0.493 -0.024,0.874" />
      </g>
    </g>
    <g
       transform="matrix(-1,0,0,1,296.9258,-134.988)"
       class="L"
       id="g219">
      <path
         id="use207"
         d="m 230.52,203.96 c 12.684,0.353 11.772,4.53 13.664,7.918 -9.183,0.753 -7.626,-6.922 -13.664,-7.918 z"
         style="fill:#472928;stroke-width:0.265" />
      <g
         class="K N"
         id="g217">
        <path
           id="use209"
           d="m 232.057,204.294 c 8.6,1.925 7.513,5.041 11.827,7.417" />
        <path
           id="use211"
           d="m 237.786,207.961 c 0.929,-0.063 1.778,0.004 2.397,0.451 -0.227,-0.658 -0.234,-1.218 0.184,-1.587" />
        <path
           id="use213"
           d="m 236.266,206.833 c 0.823,-0.506 1.551,-0.296 2.263,0.033 -0.063,-0.333 -0.346,-0.694 0.259,-0.944" />
        <path
           id="use215"
           d="m 236.92,205.04 c -0.724,-0.139 -0.165,0.493 -0.024,0.874" />
      </g>
    </g>
    <path
       d="m 34.507,76.756 c 1.073,3.501 5.785,7.166 11.158,3.475 5.373,3.692 10.085,0.026 11.158,-3.475 H 45.665 Z"
       class="B L M"
       id="path221" />
    <path
       d="m 44.128,49.094 v 18.243 c -1.854,0.619 -3.094,2.28 -3.094,4.145 0,1.038 0.388,2.042 1.093,2.835 h -2.865 v 1.559 h -1.867 v 1.415 h -4.026 v 1.837 H 57.958 V 77.291 H 53.931 V 75.876 H 52.065 V 74.317 H 49.2 c 0.706,-0.793 1.093,-1.797 1.093,-2.835 0,-1.865 -1.24,-3.526 -3.093,-4.145 V 49.094 Z"
       stroke="#000000"
       stroke-width="0.253"
       class="F O Q T"
       id="path223" />
  </g>
  <g
     id="g2326">
    <path
       id="use367"
       d="m 30.015176,82.17602 c 1.014213,3.690858 -1.086672,4.374599 1.642871,7.244986 1.050466,-3.741755 -0.269491,-5.51575 -1.642871,-7.244986 z"
       style="fill:#e9e9e9;stroke:#d8d8d8;stroke-width:0.223676" />
    <path
       id="use369"
       d="m 30.625974,84.173686 c -0.159721,1.570082 -0.227479,3.097056 0.545394,4.216531 z"
       style="fill:#fefefe;stroke-width:0.844061" />
    <path
       id="use225"
       d="m 29.332,94.029 c 4.319,0.473 4.514,-2.251 8.386,0.501 -3.829,2.074 -6.125,0.824 -8.386,-0.501 z"
       style="fill:#e9e9e9;stroke:#d8d8d8;stroke-width:0.265" />
    <path
       id="use227"
       d="m 31.686,94.361 c 1.681,-0.525 3.339,-0.928 4.772,-0.213 z"
       style="fill:#fefefe" />
    <g
       transform="rotate(1.5980147,5062.7147,-7360.3891)"
       id="g233">
      <path
         id="use229"
         d="m 235.665,229.017 c 4.319,0.473 4.514,-2.251 8.386,0.501 -3.829,2.074 -6.125,0.824 -8.386,-0.501 z"
         style="fill:#e9e9e9;stroke:#d8d8d8;stroke-width:0.265" />
      <path
         id="use231"
         d="m 238.019,229.349 c 1.681,-0.525 3.339,-0.928 4.772,-0.213 z"
         style="fill:#fefefe" />
    </g>
    <g
       transform="rotate(5.7119899,1538.141,-1981.6789)"
       id="g239">
      <path
         id="use235"
         d="m 235.665,229.017 c 4.319,0.473 4.514,-2.251 8.386,0.501 -3.829,2.074 -6.125,0.824 -8.386,-0.501 z"
         style="fill:#e9e9e9;stroke:#d8d8d8;stroke-width:0.265" />
      <path
         id="use237"
         d="m 238.019,229.349 c 1.681,-0.525 3.339,-0.928 4.772,-0.213 z"
         style="fill:#fefefe" />
    </g>
    <g
       transform="rotate(14.809025,683.43866,-675.01205)"
       id="g245">
      <path
         id="use241"
         d="m 235.665,229.017 c 4.319,0.473 4.514,-2.251 8.386,0.501 -3.829,2.074 -6.125,0.824 -8.386,-0.501 z"
         style="fill:#e9e9e9;stroke:#d8d8d8;stroke-width:0.265" />
      <path
         id="use243"
         d="m 238.019,229.349 c 1.681,-0.525 3.339,-0.928 4.772,-0.213 z"
         style="fill:#fefefe" />
    </g>
    <g
       transform="rotate(21.686013,512.86018,-415.87795)"
       id="g251">
      <path
         id="use247"
         d="m 235.665,229.017 c 4.319,0.473 4.514,-2.251 8.386,0.501 -3.829,2.074 -6.125,0.824 -8.386,-0.501 z"
         style="fill:#e9e9e9;stroke:#d8d8d8;stroke-width:0.265" />
      <path
         id="use249"
         d="m 238.019,229.349 c 1.681,-0.525 3.339,-0.928 4.772,-0.213 z"
         style="fill:#fefefe" />
    </g>
    <g
       transform="matrix(0.89082,0.396301,-0.460258,0.767034,-89.29407,-191.05484)"
       id="g257">
      <path
         id="use253"
         d="m 235.665,229.017 c 4.319,0.473 4.514,-2.251 8.386,0.501 -3.829,2.074 -6.125,0.824 -8.386,-0.501 z"
         style="fill:#e9e9e9;stroke:#d8d8d8;stroke-width:0.265" />
      <path
         id="use255"
         d="m 238.019,229.349 c 1.681,-0.525 3.339,-0.928 4.772,-0.213 z"
         style="fill:#fefefe" />
    </g>
    <g
       transform="matrix(0.800211,0.493123,-0.562973,0.700926,-45.67309,-202.35028)"
       id="g263">
      <path
         id="use259"
         d="m 235.665,229.017 c 4.319,0.473 4.514,-2.251 8.386,0.501 -3.829,2.074 -6.125,0.824 -8.386,-0.501 z"
         style="fill:#e9e9e9;stroke:#d8d8d8;stroke-width:0.265" />
      <path
         id="use261"
         d="m 238.019,229.349 c 1.681,-0.525 3.339,-0.928 4.772,-0.213 z"
         style="fill:#fefefe" />
    </g>
    <g
       transform="matrix(0.749445,0.430447,-0.625468,0.515768,-20.56662,-147.77173)"
       id="g269">
      <path
         id="use265"
         d="m 235.665,229.017 c 4.319,0.473 4.514,-2.251 8.386,0.501 -3.829,2.074 -6.125,0.824 -8.386,-0.501 z"
         style="fill:#e9e9e9;stroke:#d8d8d8;stroke-width:0.265" />
      <path
         id="use267"
         d="m 238.019,229.349 c 1.681,-0.525 3.339,-0.928 4.772,-0.213 z"
         style="fill:#fefefe" />
    </g>
    <g
       transform="matrix(0.710644,0.395101,-0.687533,0.676693,2.20282,-179.01536)"
       id="g275">
      <path
         id="use271"
         d="m 235.665,229.017 c 4.319,0.473 4.514,-2.251 8.386,0.501 -3.829,2.074 -6.125,0.824 -8.386,-0.501 z"
         style="fill:#e9e9e9;stroke:#d8d8d8;stroke-width:0.265" />
      <path
         id="use273"
         d="m 238.019,229.349 c 1.681,-0.525 3.339,-0.928 4.772,-0.213 z"
         style="fill:#fefefe" />
    </g>
    <g
       transform="matrix(0.704092,0.545125,-0.66501,0.634246,-2.02646,-208.10741)"
       id="g281">
      <path
         id="use277"
         d="m 235.665,229.017 c 4.319,0.473 4.514,-2.251 8.386,0.501 -3.829,2.074 -6.125,0.824 -8.386,-0.501 z"
         style="fill:#e9e9e9;stroke:#d8d8d8;stroke-width:0.265" />
      <path
         id="use279"
         d="m 238.019,229.349 c 1.681,-0.525 3.339,-0.928 4.772,-0.213 z"
         style="fill:#fefefe" />
    </g>
    <g
       transform="matrix(0.643589,0.615386,-0.727357,0.561656,26.02769,-211.3196)"
       id="g287">
      <path
         id="use283"
         d="m 235.665,229.017 c 4.319,0.473 4.514,-2.251 8.386,0.501 -3.829,2.074 -6.125,0.824 -8.386,-0.501 z"
         style="fill:#e9e9e9;stroke:#d8d8d8;stroke-width:0.265" />
      <path
         id="use285"
         d="m 238.019,229.349 c 1.681,-0.525 3.339,-0.928 4.772,-0.213 z"
         style="fill:#fefefe" />
    </g>
    <g
       transform="matrix(0.586967,0.669609,-0.77394,0.495503,50.38752,-211.94714)"
       id="g293">
      <path
         id="use289"
         d="m 235.665,229.017 c 4.319,0.473 4.514,-2.251 8.386,0.501 -3.829,2.074 -6.125,0.824 -8.386,-0.501 z"
         style="fill:#e9e9e9;stroke:#d8d8d8;stroke-width:0.265" />
      <path
         id="use291"
         d="m 238.019,229.349 c 1.681,-0.525 3.339,-0.928 4.772,-0.213 z"
         style="fill:#fefefe" />
    </g>
    <g
       transform="matrix(0.56068,0.651682,-0.739279,0.482237,48.73448,-207.42726)"
       id="g299">
      <path
         id="use295"
         d="m 235.665,229.017 c 4.319,0.473 4.514,-2.251 8.386,0.501 -3.829,2.074 -6.125,0.824 -8.386,-0.501 z"
         style="fill:#e9e9e9;stroke:#d8d8d8;stroke-width:0.265" />
      <path
         id="use297"
         d="m 238.019,229.349 c 1.681,-0.525 3.339,-0.928 4.772,-0.213 z"
         style="fill:#fefefe" />
    </g>
    <g
       transform="matrix(0.4707,0.700593,-0.799888,0.363958,84.45768,-194.838)"
       id="g305">
      <path
         id="use301"
         d="m 235.665,229.017 c 4.319,0.473 4.514,-2.251 8.386,0.501 -3.829,2.074 -6.125,0.824 -8.386,-0.501 z"
         style="fill:#e9e9e9;stroke:#d8d8d8;stroke-width:0.265" />
      <path
         id="use303"
         d="m 238.019,229.349 c 1.681,-0.525 3.339,-0.928 4.772,-0.213 z"
         style="fill:#fefefe" />
    </g>
    <g
       transform="matrix(0.398517,0.744024,-0.832185,0.282409,109.91532,-189.24159)"
       id="g311">
      <path
         id="use307"
         d="m 235.665,229.017 c 4.319,0.473 4.514,-2.251 8.386,0.501 -3.829,2.074 -6.125,0.824 -8.386,-0.501 z"
         style="fill:#e9e9e9;stroke:#d8d8d8;stroke-width:0.265" />
      <path
         id="use309"
         d="m 238.019,229.349 c 1.681,-0.525 3.339,-0.928 4.772,-0.213 z"
         style="fill:#fefefe" />
    </g>
    <g
       transform="matrix(0.293655,0.791299,-0.862854,0.166639,143.12593,-176.60518)"
       id="g317">
      <path
         id="use313"
         d="m 235.665,229.017 c 4.319,0.473 4.514,-2.251 8.386,0.501 -3.829,2.074 -6.125,0.824 -8.386,-0.501 z"
         style="fill:#e9e9e9;stroke:#d8d8d8;stroke-width:0.265" />
      <path
         id="use315"
         d="m 238.019,229.349 c 1.681,-0.525 3.339,-0.928 4.772,-0.213 z"
         style="fill:#fefefe" />
    </g>
    <g
       transform="matrix(0.205098,0.818733,-0.875925,0.071,168.60147,-163.97505)"
       id="g323">
      <path
         id="use319"
         d="m 235.665,229.017 c 4.319,0.473 4.514,-2.251 8.386,0.501 -3.829,2.074 -6.125,0.824 -8.386,-0.501 z"
         style="fill:#e9e9e9;stroke:#d8d8d8;stroke-width:0.265" />
      <path
         id="use321"
         d="m 238.019,229.349 c 1.681,-0.525 3.339,-0.928 4.772,-0.213 z"
         style="fill:#fefefe" />
    </g>
    <g
       transform="matrix(0.036191,0.843255,-0.8723,-0.106672,209.90574,-131.87885)"
       id="g329">
      <path
         id="use325"
         d="m 235.665,229.017 c 4.319,0.473 4.514,-2.251 8.386,0.501 -3.829,2.074 -6.125,0.824 -8.386,-0.501 z"
         style="fill:#e9e9e9;stroke:#d8d8d8;stroke-width:0.265" />
      <path
         id="use327"
         d="m 238.019,229.349 c 1.681,-0.525 3.339,-0.928 4.772,-0.213 z"
         style="fill:#fefefe" />
    </g>
    <g
       transform="matrix(0.029715,0.843508,-0.871455,-0.113367,212.97632,-134.01157)"
       id="g335">
      <path
         id="use331"
         d="m 236.28899,228.835 c 4.319,0.473 4.514,-2.251 8.386,0.501 -3.829,2.074 -6.125,0.824 -8.386,-0.501 z"
         style="fill:#e9e9e9;stroke:#d8d8d8;stroke-width:0.265" />
      <path
         id="use333"
         d="m 238.413,229.249 c 1.681,-0.525 3.339,-0.928 4.772,-0.213 z"
         style="fill:#fefefe" />
    </g>
    <g
       transform="matrix(-0.094561,0.838717,-0.845336,-0.240196,239.1407,-106.94784)"
       id="g341">
      <path
         id="use337"
         d="m 236.28899,228.835 c 4.319,0.473 4.514,-2.251 8.386,0.501 -3.829,2.074 -6.125,0.824 -8.386,-0.501 z"
         style="fill:#e9e9e9;stroke:#d8d8d8;stroke-width:0.265" />
      <path
         id="use339"
         d="m 238.413,229.249 c 1.681,-0.525 3.339,-0.928 4.772,-0.213 z"
         style="fill:#fefefe" />
    </g>
    <g
       transform="matrix(-0.094561,0.838717,-0.845336,-0.240196,241.36455,-110.04772)"
       id="g347">
      <path
         id="use343"
         d="m 236.28899,228.835 c 4.319,0.473 4.514,-2.251 8.386,0.501 -3.829,2.074 -6.125,0.824 -8.386,-0.501 z"
         style="fill:#e9e9e9;stroke:#d8d8d8;stroke-width:0.265" />
      <path
         id="use345"
         d="m 238.413,229.249 c 1.681,-0.525 3.339,-0.928 4.772,-0.213 z"
         style="fill:#fefefe" />
    </g>
    <g
       transform="matrix(-0.17181,0.826359,-0.819465,-0.317432,256.46426,-92.302163)"
       id="g353">
      <path
         id="use349"
         d="m 236.28899,228.835 c 4.319,0.473 4.514,-2.251 8.386,0.501 -3.829,2.074 -6.125,0.824 -8.386,-0.501 z"
         style="fill:#e9e9e9;stroke:#d8d8d8;stroke-width:0.265" />
      <path
         id="use351"
         d="m 238.413,229.249 c 1.681,-0.525 3.339,-0.928 4.772,-0.213 z"
         style="fill:#fefefe" />
    </g>
    <g
       transform="matrix(0.369331,0.929298,0.929298,-0.369331,-265.10828,-48.251967)"
       id="g359">
      <path
         id="use355"
         d="m 235.665,229.017 c 4.319,0.473 4.514,-2.251 8.386,0.501 -3.829,2.074 -6.125,0.824 -8.386,-0.501 z"
         style="fill:#e9e9e9;stroke:#d8d8d8;stroke-width:0.265" />
      <path
         id="use357"
         d="m 238.019,229.349 c 1.681,-0.525 3.339,-0.928 4.772,-0.213 z"
         style="fill:#fefefe" />
    </g>
    <g
       transform="matrix(0.272545,0.903513,0.819029,-0.300659,-219.5023,-59.689089)"
       id="g365">
      <path
         id="use361"
         d="m 235.665,229.017 c 4.319,0.473 4.514,-2.251 8.386,0.501 -3.829,2.074 -6.125,0.824 -8.386,-0.501 z"
         style="fill:#e9e9e9;stroke:#d8d8d8;stroke-width:0.265" />
      <path
         id="use363"
         d="m 238.019,229.349 c 1.681,-0.525 3.339,-0.928 4.772,-0.213 z"
         style="fill:#fefefe" />
    </g>
    <g
       transform="matrix(-0.097884,0.882403,0.803554,0.034526,-132.66094,-136.19105)"
       id="g377">
      <path
         id="use373"
         d="m 235.665,229.017 c 4.319,0.473 4.514,-2.251 8.386,0.501 -3.829,2.074 -6.125,0.824 -8.386,-0.501 z"
         style="fill:#e9e9e9;stroke:#d8d8d8;stroke-width:0.265" />
      <path
         id="use375"
         d="m 238.019,229.349 c 1.681,-0.525 3.339,-0.928 4.772,-0.213 z"
         style="fill:#fefefe" />
    </g>
    <g
       transform="matrix(-0.154842,0.874209,0.79963,0.08651,-120.66624,-148.75413)"
       id="g383">
      <path
         id="use379"
         d="m 235.665,229.017 c 4.319,0.473 4.514,-2.251 8.386,0.501 -3.829,2.074 -6.125,0.824 -8.386,-0.501 z"
         style="fill:#e9e9e9;stroke:#d8d8d8;stroke-width:0.265" />
      <path
         id="use381"
         d="m 238.019,229.349 c 1.681,-0.525 3.339,-0.928 4.772,-0.213 z"
         style="fill:#fefefe" />
    </g>
    <g
       transform="matrix(-0.285063,0.753224,0.773773,0.185876,-85.41549,-145.20576)"
       id="g389">
      <path
         id="use385"
         d="m 235.665,229.017 c 4.319,0.473 4.514,-2.251 8.386,0.501 -3.829,2.074 -6.125,0.824 -8.386,-0.501 z"
         style="fill:#e9e9e9;stroke:#d8d8d8;stroke-width:0.265" />
      <path
         id="use387"
         d="m 238.019,229.349 c 1.681,-0.525 3.339,-0.928 4.772,-0.213 z"
         style="fill:#fefefe" />
    </g>
    <g
       transform="matrix(-0.389817,0.704734,0.739252,0.294586,-53.54469,-161.26038)"
       id="g395">
      <path
         id="use391"
         d="m 235.665,229.017 c 4.319,0.473 4.514,-2.251 8.386,0.501 -3.829,2.074 -6.125,0.824 -8.386,-0.501 z"
         style="fill:#e9e9e9;stroke:#d8d8d8;stroke-width:0.265" />
      <path
         id="use393"
         d="m 238.019,229.349 c 1.681,-0.525 3.339,-0.928 4.772,-0.213 z"
         style="fill:#fefefe" />
    </g>
    <g
       transform="matrix(-0.411692,0.692183,0.729665,0.317589,-47.33366,-165.82794)"
       id="g401">
      <path
         id="use397"
         d="m 235.665,229.017 c 4.319,0.473 4.514,-2.251 8.386,0.501 -3.829,2.074 -6.125,0.824 -8.386,-0.501 z"
         style="fill:#e9e9e9;stroke:#d8d8d8;stroke-width:0.265" />
      <path
         id="use399"
         d="m 238.019,229.349 c 1.681,-0.525 3.339,-0.928 4.772,-0.213 z"
         style="fill:#fefefe" />
    </g>
    <g
       transform="matrix(-0.460174,0.660944,0.705066,0.368994,-31.11893,-173.0518)"
       id="g407">
      <path
         id="use403"
         d="m 235.665,229.017 c 4.319,0.473 4.514,-2.251 8.386,0.501 -3.829,2.074 -6.125,0.824 -8.386,-0.501 z"
         style="fill:#e9e9e9;stroke:#d8d8d8;stroke-width:0.265" />
      <path
         id="use405"
         d="m 238.019,229.349 c 1.681,-0.525 3.339,-0.928 4.772,-0.213 z"
         style="fill:#fefefe" />
    </g>
    <g
       transform="matrix(-0.541768,0.595898,0.651438,0.457058,0.08728,-179.91088)"
       id="g413">
      <path
         id="use409"
         d="m 235.665,229.017 c 4.319,0.473 4.514,-2.251 8.386,0.501 -3.829,2.074 -6.125,0.824 -8.386,-0.501 z"
         style="fill:#e9e9e9;stroke:#d8d8d8;stroke-width:0.265" />
      <path
         id="use411"
         d="m 238.019,229.349 c 1.681,-0.525 3.339,-0.928 4.772,-0.213 z"
         style="fill:#fefefe" />
    </g>
    <g
       transform="matrix(-0.641761,0.48657,0.556687,0.568659,45.47481,-181.74586)"
       id="g419">
      <path
         id="use415"
         d="m 235.665,229.017 c 4.319,0.473 4.514,-2.251 8.386,0.501 -3.829,2.074 -6.125,0.824 -8.386,-0.501 z"
         style="fill:#e9e9e9;stroke:#d8d8d8;stroke-width:0.265" />
      <path
         id="use417"
         d="m 238.019,229.349 c 1.681,-0.525 3.339,-0.928 4.772,-0.213 z"
         style="fill:#fefefe" />
    </g>
    <g
       transform="matrix(-0.678416,0.434003,0.509711,0.611121,64.9726,-181.10889)"
       id="g425">
      <path
         id="use421"
         d="m 235.665,229.017 c 4.319,0.473 4.514,-2.251 8.386,0.501 -3.829,2.074 -6.125,0.824 -8.386,-0.501 z"
         style="fill:#e9e9e9;stroke:#d8d8d8;stroke-width:0.265" />
      <path
         id="use423"
         d="m 238.019,229.349 c 1.681,-0.525 3.339,-0.928 4.772,-0.213 z"
         style="fill:#fefefe" />
    </g>
    <g
       transform="matrix(-0.674219,0.440496,0.515554,0.6062,62.62582,-184.11068)"
       id="g431">
      <path
         id="use427"
         d="m 235.665,229.017 c 4.319,0.473 4.514,-2.251 8.386,0.501 -3.829,2.074 -6.125,0.824 -8.386,-0.501 z"
         style="fill:#e9e9e9;stroke:#d8d8d8;stroke-width:0.265" />
      <path
         id="use429"
         d="m 238.019,229.349 c 1.681,-0.525 3.339,-0.928 4.772,-0.213 z"
         style="fill:#fefefe" />
    </g>
    <g
       transform="matrix(-0.698553,0.375297,0.421676,0.705604,90.18767,-193.59779)"
       id="g437">
      <path
         id="use433"
         d="m 235.665,229.017 c 4.319,0.473 4.514,-2.251 8.386,0.501 -3.829,2.074 -6.125,0.824 -8.386,-0.501 z"
         style="fill:#e9e9e9;stroke:#d8d8d8;stroke-width:0.265" />
      <path
         id="use435"
         d="m 238.019,229.349 c 1.681,-0.525 3.339,-0.928 4.772,-0.213 z"
         style="fill:#fefefe" />
    </g>
    <g
       transform="matrix(-0.732516,0.334706,0.419093,0.676487,99.52889,-179.65702)"
       id="g443">
      <path
         id="use439"
         d="m 235.665,229.017 c 4.319,0.473 4.514,-2.251 8.386,0.501 -3.829,2.074 -6.125,0.824 -8.386,-0.501 z"
         style="fill:#e9e9e9;stroke:#d8d8d8;stroke-width:0.265" />
      <path
         id="use441"
         d="m 238.019,229.349 c 1.681,-0.525 3.339,-0.928 4.772,-0.213 z"
         style="fill:#fefefe" />
    </g>
    <g
       transform="matrix(-0.747397,0.300009,0.386929,0.695385,110.97397,-177.93715)"
       id="g449">
      <path
         id="use445"
         d="m 235.665,229.017 c 4.319,0.473 4.514,-2.251 8.386,0.501 -3.829,2.074 -6.125,0.824 -8.386,-0.501 z"
         style="fill:#e9e9e9;stroke:#d8d8d8;stroke-width:0.265" />
      <path
         id="use447"
         d="m 238.019,229.349 c 1.681,-0.525 3.339,-0.928 4.772,-0.213 z"
         style="fill:#fefefe" />
    </g>
    <g
       transform="matrix(-0.747397,0.300009,0.386929,0.695385,111.74237,-180.24235)"
       id="g455">
      <path
         id="use451"
         d="m 235.665,229.017 c 4.319,0.473 4.514,-2.251 8.386,0.501 -3.829,2.074 -6.125,0.824 -8.386,-0.501 z"
         style="fill:#e9e9e9;stroke:#d8d8d8;stroke-width:0.265" />
      <path
         id="use453"
         d="m 238.019,229.349 c 1.681,-0.525 3.339,-0.928 4.772,-0.213 z"
         style="fill:#fefefe" />
    </g>
    <g
       transform="matrix(-0.762071,0.260489,0.350012,0.714679,125.13047,-178.09098)"
       id="g461">
      <path
         id="use457"
         d="m 235.665,229.017 c 4.319,0.473 4.514,-2.251 8.386,0.501 -3.829,2.074 -6.125,0.824 -8.386,-0.501 z"
         style="fill:#e9e9e9;stroke:#d8d8d8;stroke-width:0.265" />
      <path
         id="use459"
         d="m 238.019,229.349 c 1.681,-0.525 3.339,-0.928 4.772,-0.213 z"
         style="fill:#fefefe" />
    </g>
    <g
       transform="matrix(-0.779506,0.20243,0.295264,0.738981,143.27108,-172.47265)"
       id="g467">
      <path
         id="use463"
         d="m 235.665,229.017 c 4.319,0.473 4.514,-2.251 8.386,0.501 -3.829,2.074 -6.125,0.824 -8.386,-0.501 z"
         style="fill:#e9e9e9;stroke:#d8d8d8;stroke-width:0.265" />
      <path
         id="use465"
         d="m 238.019,229.349 c 1.681,-0.525 3.339,-0.928 4.772,-0.213 z"
         style="fill:#fefefe" />
    </g>
    <g
       transform="matrix(-0.790278,0.155141,0.250246,0.755415,158.28718,-167.60038)"
       id="g473">
      <path
         id="use469"
         d="m 235.665,229.017 c 4.319,0.473 4.514,-2.251 8.386,0.501 -3.829,2.074 -6.125,0.824 -8.386,-0.501 z"
         style="fill:#e9e9e9;stroke:#d8d8d8;stroke-width:0.265" />
      <path
         id="use471"
         d="m 238.019,229.349 c 1.681,-0.525 3.339,-0.928 4.772,-0.213 z"
         style="fill:#fefefe" />
    </g>
    <g
       transform="matrix(-0.790278,0.155141,0.250246,0.755415,160.49215,-170.70739)"
       id="g479">
      <path
         id="use475"
         d="m 235.665,229.017 c 4.319,0.473 4.514,-2.251 8.386,0.501 -3.829,2.074 -6.125,0.824 -8.386,-0.501 z"
         style="fill:#e9e9e9;stroke:#d8d8d8;stroke-width:0.265" />
      <path
         id="use477"
         d="m 238.019,229.349 c 1.681,-0.525 3.339,-0.928 4.772,-0.213 z"
         style="fill:#fefefe" />
    </g>
    <g
       transform="matrix(-0.790278,0.155141,0.250246,0.755415,162.5969,-173.38008)"
       id="g485">
      <path
         id="use481"
         d="m 235.665,229.017 c 4.319,0.473 4.514,-2.251 8.386,0.501 -3.829,2.074 -6.125,0.824 -8.386,-0.501 z"
         style="fill:#e9e9e9;stroke:#d8d8d8;stroke-width:0.265" />
      <path
         id="use483"
         d="m 238.019,229.349 c 1.681,-0.525 3.339,-0.928 4.772,-0.213 z"
         style="fill:#fefefe" />
    </g>
    <path
       d="m 47.195,105.216 1.606,-1.512 C 44.262,91.331 27.92,95.258 17.807,71.198 12.52,52.484 26.333,39.188 29.512,35.101 L 28.898,34.51 C 21.85,42.786 12.122,53.512 17.24,71.292 c 7.404,22.57 26.625,21.104 29.955,33.923 z"
       class="B C D"
       id="path487" />
    <g
       transform="matrix(-0.972113,0.945033,-0.930872,-1.044941,479.99854,43.69224)"
       id="g493">
      <path
         id="use489"
         d="m 236.28899,228.835 c 4.319,0.473 4.514,-2.251 8.386,0.501 -3.829,2.074 -6.125,0.824 -8.386,-0.501 z"
         style="fill:#e9e9e9;stroke:#d8d8d8;stroke-width:0.265" />
      <path
         id="use491"
         d="m 238.413,229.249 c 1.681,-0.525 3.339,-0.928 4.772,-0.213 z"
         style="fill:#fefefe" />
    </g>
  </g>
  <g
     id="g2844">
    <g
       class="B"
       id="g503"
       transform="translate(-59.335,-134.988)">
      <g
         class="C"
         id="g499">
        <path
           d="m 103.04,240.204 -1.606,-1.512 c 2.003,-5.461 6.306,-7.747 11.357,-10.665 l 0.367,1.025 c -4.762,3.074 -8.76,5.926 -10.117,11.151 z"
           class="D"
           id="path495" />
        <path
           id="use497"
           d="m 115.89,169.783 c -1.18,0.006 -1.984,-1.945 -0.618,-3.324 0.569,-2.76 2.468,-2.764 4.176,-2.522 1.544,-0.346 2.402,-0.204 2.255,0.651 l -1.62,3.842 z"
           style="stroke:#afafaf" />
      </g>
      <path
         id="use501"
         d="m 122.094,170.963 c 1.849,-5.771 0.241,-5.013 0.071,-6.969 -1.461,0.036 -2.059,0.775 -1.819,2.197 -0.824,-0.145 -1.168,-0.481 -2.551,-0.402 v 2.079 c -0.922,-0.077 -1.825,0.08 -2.622,1.559 2.307,3.017 4.614,1.507 6.922,1.536 z"
         style="fill:#018f50;stroke:#005b31" />
    </g>
    <path
       id="use505"
       d="m 56.895,34.119 c 0.901,-0.578 1.802,-1.159 2.79,-1.086 -0.687,-0.286 -0.483,-0.939 -0.451,-1.52 0.886,-0.133 1.51,0.11 2.088,0.418 0.178,-1.231 0.664,-1.538 1.002,-2.288 -0.04,1.223 1.107,1.801 -0.317,3.775 0,0 -4.076,2.205 -5.112,0.702 z"
       style="fill:#00a75d" />
    <path
       id="use507"
       d="m 57.658,29.683 c -0.37,0.362 -0.661,0.83 -0.859,1.297 -0.257,0.458 -0.762,0.72 -0.958,1.223 -0.42,0.484 0.197,1.022 0.681,0.684 0.373,-0.327 1.034,-0.048 1.224,-0.602 0.181,-0.542 -0.042,-1.208 0.324,-1.681 0.552,-0.399 1.294,-0.385 1.927,-0.215 0.612,0.096 0.706,-0.727 0.912,-1.132 -0.978,-0.155 -1.927,0.218 -2.874,0.393 -0.126,0.004 -0.256,-0.01 -0.377,0.032 z"
       style="fill:#ffffff" />
    <g
       transform="rotate(5.7870227,1451.3799,-1876.652)"
       id="g519">
      <g
         class="B"
         id="g513">
        <path
           id="use509"
           d="m 261.07201,169.783 c -1.18,0.006 -1.984,-1.945 -0.618,-3.324 0.569,-2.76 2.468,-2.764 4.176,-2.522 1.544,-0.346 2.402,-0.204 2.255,0.651 l -1.62,3.842 z"
           style="fill:#e9e9e9;stroke:#afafaf" />
        <path
           id="use511"
           d="m 267.27601,170.963 c 1.849,-5.771 0.241,-5.013 0.071,-6.969 -1.461,0.036 -2.059,0.775 -1.819,2.197 -0.824,-0.145 -1.168,-0.481 -2.551,-0.402 v 2.079 c -0.922,-0.077 -1.825,0.08 -2.622,1.559 2.307,3.017 4.614,1.507 6.922,1.536 z"
           style="fill:#018f50;stroke:#005b31" />
      </g>
      <path
         id="use515"
         d="m 261.41201,169.107 c 0.901,-0.578 1.802,-1.159 2.79,-1.086 -0.687,-0.286 -0.483,-0.939 -0.451,-1.52 0.886,-0.133 1.51,0.11 2.088,0.418 0.178,-1.231 0.664,-1.538 1.002,-2.288 -0.04,1.223 1.107,1.801 -0.317,3.775 0,0 -4.076,2.205 -5.112,0.702 z"
         style="fill:#00a75d" />
      <path
         id="use517"
         d="m 262.17501,164.671 c -0.37,0.362 -0.661,0.83 -0.859,1.297 -0.257,0.458 -0.762,0.72 -0.958,1.223 -0.42,0.484 0.197,1.022 0.681,0.684 0.373,-0.327 1.034,-0.048 1.224,-0.602 0.181,-0.542 -0.042,-1.208 0.324,-1.681 0.552,-0.399 1.294,-0.385 1.927,-0.215 0.612,0.096 0.706,-0.727 0.912,-1.132 -0.978,-0.155 -1.927,0.218 -2.874,0.393 -0.126,0.004 -0.256,-0.01 -0.377,0.032 z"
         style="fill:#ffffff" />
    </g>
    <g
       transform="rotate(5.7870227,1410.9119,-1838.1573)"
       id="g531">
      <g
         class="B"
         id="g525">
        <path
           id="use521"
           d="m 261.07201,169.783 c -1.18,0.006 -1.984,-1.945 -0.618,-3.324 0.569,-2.76 2.468,-2.764 4.176,-2.522 1.544,-0.346 2.402,-0.204 2.255,0.651 l -1.62,3.842 z"
           style="fill:#e9e9e9;stroke:#afafaf" />
        <path
           id="use523"
           d="m 267.27601,170.963 c 1.849,-5.771 0.241,-5.013 0.071,-6.969 -1.461,0.036 -2.059,0.775 -1.819,2.197 -0.824,-0.145 -1.168,-0.481 -2.551,-0.402 v 2.079 c -0.922,-0.077 -1.825,0.08 -2.622,1.559 2.307,3.017 4.614,1.507 6.922,1.536 z"
           style="fill:#018f50;stroke:#005b31" />
      </g>
      <path
         id="use527"
         d="m 261.41201,169.107 c 0.901,-0.578 1.802,-1.159 2.79,-1.086 -0.687,-0.286 -0.483,-0.939 -0.451,-1.52 0.886,-0.133 1.51,0.11 2.088,0.418 0.178,-1.231 0.664,-1.538 1.002,-2.288 -0.04,1.223 1.107,1.801 -0.317,3.775 0,0 -4.076,2.205 -5.112,0.702 z"
         style="fill:#00a75d" />
      <path
         id="use529"
         d="m 262.17501,164.671 c -0.37,0.362 -0.661,0.83 -0.859,1.297 -0.257,0.458 -0.762,0.72 -0.958,1.223 -0.42,0.484 0.197,1.022 0.681,0.684 0.373,-0.327 1.034,-0.048 1.224,-0.602 0.181,-0.542 -0.042,-1.208 0.324,-1.681 0.552,-0.399 1.294,-0.385 1.927,-0.215 0.612,0.096 0.706,-0.727 0.912,-1.132 -0.978,-0.155 -1.927,0.218 -2.874,0.393 -0.126,0.004 -0.256,-0.01 -0.377,0.032 z"
         style="fill:#ffffff" />
    </g>
    <g
       transform="rotate(8.5269749,979.32584,-1194.5266)"
       id="g543">
      <g
         class="B"
         id="g537">
        <path
           id="use533"
           d="m 261.07201,169.783 c -1.18,0.006 -1.984,-1.945 -0.618,-3.324 0.569,-2.76 2.468,-2.764 4.176,-2.522 1.544,-0.346 2.402,-0.204 2.255,0.651 l -1.62,3.842 z"
           style="fill:#e9e9e9;stroke:#afafaf" />
        <path
           id="use535"
           d="m 267.27601,170.963 c 1.849,-5.771 0.241,-5.013 0.071,-6.969 -1.461,0.036 -2.059,0.775 -1.819,2.197 -0.824,-0.145 -1.168,-0.481 -2.551,-0.402 v 2.079 c -0.922,-0.077 -1.825,0.08 -2.622,1.559 2.307,3.017 4.614,1.507 6.922,1.536 z"
           style="fill:#018f50;stroke:#005b31" />
      </g>
      <path
         id="use539"
         d="m 261.41201,169.107 c 0.901,-0.578 1.802,-1.159 2.79,-1.086 -0.687,-0.286 -0.483,-0.939 -0.451,-1.52 0.886,-0.133 1.51,0.11 2.088,0.418 0.178,-1.231 0.664,-1.538 1.002,-2.288 -0.04,1.223 1.107,1.801 -0.317,3.775 0,0 -4.076,2.205 -5.112,0.702 z"
         style="fill:#00a75d" />
      <path
         id="use541"
         d="m 262.17501,164.671 c -0.37,0.362 -0.661,0.83 -0.859,1.297 -0.257,0.458 -0.762,0.72 -0.958,1.223 -0.42,0.484 0.197,1.022 0.681,0.684 0.373,-0.327 1.034,-0.048 1.224,-0.602 0.181,-0.542 -0.042,-1.208 0.324,-1.681 0.552,-0.399 1.294,-0.385 1.927,-0.215 0.612,0.096 0.706,-0.727 0.912,-1.132 -0.978,-0.155 -1.927,0.218 -2.874,0.393 -0.126,0.004 -0.256,-0.01 -0.377,0.032 z"
         style="fill:#ffffff" />
    </g>
    <g
       transform="rotate(14.342991,633.07449,-654.12471)"
       id="g555">
      <g
         class="B"
         id="g549">
        <path
           id="use545"
           d="m 261.07201,169.783 c -1.18,0.006 -1.984,-1.945 -0.618,-3.324 0.569,-2.76 2.468,-2.764 4.176,-2.522 1.544,-0.346 2.402,-0.204 2.255,0.651 l -1.62,3.842 z"
           style="fill:#e9e9e9;stroke:#afafaf" />
        <path
           id="use547"
           d="m 267.27601,170.963 c 1.849,-5.771 0.241,-5.013 0.071,-6.969 -1.461,0.036 -2.059,0.775 -1.819,2.197 -0.824,-0.145 -1.168,-0.481 -2.551,-0.402 v 2.079 c -0.922,-0.077 -1.825,0.08 -2.622,1.559 2.307,3.017 4.614,1.507 6.922,1.536 z"
           style="fill:#018f50;stroke:#005b31" />
      </g>
      <path
         id="use551"
         d="m 261.41201,169.107 c 0.901,-0.578 1.802,-1.159 2.79,-1.086 -0.687,-0.286 -0.483,-0.939 -0.451,-1.52 0.886,-0.133 1.51,0.11 2.088,0.418 0.178,-1.231 0.664,-1.538 1.002,-2.288 -0.04,1.223 1.107,1.801 -0.317,3.775 0,0 -4.076,2.205 -5.112,0.702 z"
         style="fill:#00a75d" />
      <path
         id="use553"
         d="m 262.17501,164.671 c -0.37,0.362 -0.661,0.83 -0.859,1.297 -0.257,0.458 -0.762,0.72 -0.958,1.223 -0.42,0.484 0.197,1.022 0.681,0.684 0.373,-0.327 1.034,-0.048 1.224,-0.602 0.181,-0.542 -0.042,-1.208 0.324,-1.681 0.552,-0.399 1.294,-0.385 1.927,-0.215 0.612,0.096 0.706,-0.727 0.912,-1.132 -0.978,-0.155 -1.927,0.218 -2.874,0.393 -0.126,0.004 -0.256,-0.01 -0.377,0.032 z"
         style="fill:#ffffff" />
    </g>
    <g
       transform="rotate(20.103012,486.54685,-426.71592)"
       id="g567">
      <g
         class="B"
         id="g561">
        <path
           id="use557"
           d="m 261.07201,169.783 c -1.18,0.006 -1.984,-1.945 -0.618,-3.324 0.569,-2.76 2.468,-2.764 4.176,-2.522 1.544,-0.346 2.402,-0.204 2.255,0.651 l -1.62,3.842 z"
           style="fill:#e9e9e9;stroke:#afafaf" />
        <path
           id="use559"
           d="m 267.27601,170.963 c 1.849,-5.771 0.241,-5.013 0.071,-6.969 -1.461,0.036 -2.059,0.775 -1.819,2.197 -0.824,-0.145 -1.168,-0.481 -2.551,-0.402 v 2.079 c -0.922,-0.077 -1.825,0.08 -2.622,1.559 2.307,3.017 4.614,1.507 6.922,1.536 z"
           style="fill:#018f50;stroke:#005b31" />
      </g>
      <path
         id="use563"
         d="m 261.41201,169.107 c 0.901,-0.578 1.802,-1.159 2.79,-1.086 -0.687,-0.286 -0.483,-0.939 -0.451,-1.52 0.886,-0.133 1.51,0.11 2.088,0.418 0.178,-1.231 0.664,-1.538 1.002,-2.288 -0.04,1.223 1.107,1.801 -0.317,3.775 0,0 -4.076,2.205 -5.112,0.702 z"
         style="fill:#00a75d" />
      <path
         id="use565"
         d="m 262.17501,164.671 c -0.37,0.362 -0.661,0.83 -0.859,1.297 -0.257,0.458 -0.762,0.72 -0.958,1.223 -0.42,0.484 0.197,1.022 0.681,0.684 0.373,-0.327 1.034,-0.048 1.224,-0.602 0.181,-0.542 -0.042,-1.208 0.324,-1.681 0.552,-0.399 1.294,-0.385 1.927,-0.215 0.612,0.096 0.706,-0.727 0.912,-1.132 -0.978,-0.155 -1.927,0.218 -2.874,0.393 -0.126,0.004 -0.256,-0.01 -0.377,0.032 z"
         style="fill:#ffffff" />
    </g>
    <g
       transform="rotate(29.903986,372.89848,-241.54589)"
       id="g579">
      <g
         class="B"
         id="g573">
        <path
           id="use569"
           d="m 261.07201,169.783 c -1.18,0.006 -1.984,-1.945 -0.618,-3.324 0.569,-2.76 2.468,-2.764 4.176,-2.522 1.544,-0.346 2.402,-0.204 2.255,0.651 l -1.62,3.842 z"
           style="fill:#e9e9e9;stroke:#afafaf" />
        <path
           id="use571"
           d="m 267.27601,170.963 c 1.849,-5.771 0.241,-5.013 0.071,-6.969 -1.461,0.036 -2.059,0.775 -1.819,2.197 -0.824,-0.145 -1.168,-0.481 -2.551,-0.402 v 2.079 c -0.922,-0.077 -1.825,0.08 -2.622,1.559 2.307,3.017 4.614,1.507 6.922,1.536 z"
           style="fill:#018f50;stroke:#005b31" />
      </g>
      <path
         id="use575"
         d="m 261.41201,169.107 c 0.901,-0.578 1.802,-1.159 2.79,-1.086 -0.687,-0.286 -0.483,-0.939 -0.451,-1.52 0.886,-0.133 1.51,0.11 2.088,0.418 0.178,-1.231 0.664,-1.538 1.002,-2.288 -0.04,1.223 1.107,1.801 -0.317,3.775 0,0 -4.076,2.205 -5.112,0.702 z"
         style="fill:#00a75d" />
      <path
         id="use577"
         d="m 262.17501,164.671 c -0.37,0.362 -0.661,0.83 -0.859,1.297 -0.257,0.458 -0.762,0.72 -0.958,1.223 -0.42,0.484 0.197,1.022 0.681,0.684 0.373,-0.327 1.034,-0.048 1.224,-0.602 0.181,-0.542 -0.042,-1.208 0.324,-1.681 0.552,-0.399 1.294,-0.385 1.927,-0.215 0.612,0.096 0.706,-0.727 0.912,-1.132 -0.978,-0.155 -1.927,0.218 -2.874,0.393 -0.126,0.004 -0.256,-0.01 -0.377,0.032 z"
         style="fill:#ffffff" />
    </g>
    <g
       transform="rotate(39.544013,314.811,-146.82694)"
       id="g591">
      <g
         class="B"
         id="g585">
        <path
           id="use581"
           d="m 261.07201,169.783 c -1.18,0.006 -1.984,-1.945 -0.618,-3.324 0.569,-2.76 2.468,-2.764 4.176,-2.522 1.544,-0.346 2.402,-0.204 2.255,0.651 l -1.62,3.842 z"
           style="fill:#e9e9e9;stroke:#afafaf" />
        <path
           id="use583"
           d="m 267.27601,170.963 c 1.849,-5.771 0.241,-5.013 0.071,-6.969 -1.461,0.036 -2.059,0.775 -1.819,2.197 -0.824,-0.145 -1.168,-0.481 -2.551,-0.402 v 2.079 c -0.922,-0.077 -1.825,0.08 -2.622,1.559 2.307,3.017 4.614,1.507 6.922,1.536 z"
           style="fill:#018f50;stroke:#005b31" />
      </g>
      <path
         id="use587"
         d="m 261.41201,169.107 c 0.901,-0.578 1.802,-1.159 2.79,-1.086 -0.687,-0.286 -0.483,-0.939 -0.451,-1.52 0.886,-0.133 1.51,0.11 2.088,0.418 0.178,-1.231 0.664,-1.538 1.002,-2.288 -0.04,1.223 1.107,1.801 -0.317,3.775 0,0 -4.076,2.205 -5.112,0.702 z"
         style="fill:#00a75d" />
      <path
         id="use589"
         d="m 262.17501,164.671 c -0.37,0.362 -0.661,0.83 -0.859,1.297 -0.257,0.458 -0.762,0.72 -0.958,1.223 -0.42,0.484 0.197,1.022 0.681,0.684 0.373,-0.327 1.034,-0.048 1.224,-0.602 0.181,-0.542 -0.042,-1.208 0.324,-1.681 0.552,-0.399 1.294,-0.385 1.927,-0.215 0.612,0.096 0.706,-0.727 0.912,-1.132 -0.978,-0.155 -1.927,0.218 -2.874,0.393 -0.126,0.004 -0.256,-0.01 -0.377,0.032 z"
         style="fill:#ffffff" />
    </g>
    <g
       transform="matrix(0.703292,0.720752,-0.731638,0.692828,11.48474,-238.93689)"
       id="g603">
      <g
         class="B"
         id="g597">
        <path
           id="use593"
           d="m 261.07201,169.783 c -1.18,0.006 -1.984,-1.945 -0.618,-3.324 0.569,-2.76 2.468,-2.764 4.176,-2.522 1.544,-0.346 2.402,-0.204 2.255,0.651 l -1.62,3.842 z"
           style="fill:#e9e9e9;stroke:#afafaf" />
        <path
           id="use595"
           d="m 267.27601,170.963 c 1.849,-5.771 0.241,-5.013 0.071,-6.969 -1.461,0.036 -2.059,0.775 -1.819,2.197 -0.824,-0.145 -1.168,-0.481 -2.551,-0.402 v 2.079 c -0.922,-0.077 -1.825,0.08 -2.622,1.559 2.307,3.017 4.614,1.507 6.922,1.536 z"
           style="fill:#018f50;stroke:#005b31" />
      </g>
      <path
         id="use599"
         d="m 261.41201,169.107 c 0.901,-0.578 1.802,-1.159 2.79,-1.086 -0.687,-0.286 -0.483,-0.939 -0.451,-1.52 0.886,-0.133 1.51,0.11 2.088,0.418 0.178,-1.231 0.664,-1.538 1.002,-2.288 -0.04,1.223 1.107,1.801 -0.317,3.775 0,0 -4.076,2.205 -5.112,0.702 z"
         style="fill:#00a75d" />
      <path
         id="use601"
         d="m 262.17501,164.671 c -0.37,0.362 -0.661,0.83 -0.859,1.297 -0.257,0.458 -0.762,0.72 -0.958,1.223 -0.42,0.484 0.197,1.022 0.681,0.684 0.373,-0.327 1.034,-0.048 1.224,-0.602 0.181,-0.542 -0.042,-1.208 0.324,-1.681 0.552,-0.399 1.294,-0.385 1.927,-0.215 0.612,0.096 0.706,-0.727 0.912,-1.132 -0.978,-0.155 -1.927,0.218 -2.874,0.393 -0.126,0.004 -0.256,-0.01 -0.377,0.032 z"
         style="fill:#ffffff" />
    </g>
    <g
       transform="matrix(0.729019,0.720302,-0.758402,0.692395,8.19017,-235.07029)"
       id="g615">
      <g
         class="B"
         id="g609">
        <path
           id="use605"
           d="m 261.07201,169.783 c -1.18,0.006 -1.984,-1.945 -0.618,-3.324 0.569,-2.76 2.468,-2.764 4.176,-2.522 1.544,-0.346 2.402,-0.204 2.255,0.651 l -1.62,3.842 z"
           style="fill:#e9e9e9;stroke:#afafaf" />
        <path
           id="use607"
           d="m 267.27601,170.963 c 1.849,-5.771 0.241,-5.013 0.071,-6.969 -1.461,0.036 -2.059,0.775 -1.819,2.197 -0.824,-0.145 -1.168,-0.481 -2.551,-0.402 v 2.079 c -0.922,-0.077 -1.825,0.08 -2.622,1.559 2.307,3.017 4.614,1.507 6.922,1.536 z"
           style="fill:#018f50;stroke:#005b31" />
      </g>
      <path
         id="use611"
         d="m 261.41201,169.107 c 0.901,-0.578 1.802,-1.159 2.79,-1.086 -0.687,-0.286 -0.483,-0.939 -0.451,-1.52 0.886,-0.133 1.51,0.11 2.088,0.418 0.178,-1.231 0.664,-1.538 1.002,-2.288 -0.04,1.223 1.107,1.801 -0.317,3.775 0,0 -4.076,2.205 -5.112,0.702 z"
         style="fill:#00a75d" />
      <path
         id="use613"
         d="m 262.17501,164.671 c -0.37,0.362 -0.661,0.83 -0.859,1.297 -0.257,0.458 -0.762,0.72 -0.958,1.223 -0.42,0.484 0.197,1.022 0.681,0.684 0.373,-0.327 1.034,-0.048 1.224,-0.602 0.181,-0.542 -0.042,-1.208 0.324,-1.681 0.552,-0.399 1.294,-0.385 1.927,-0.215 0.612,0.096 0.706,-0.727 0.912,-1.132 -0.978,-0.155 -1.927,0.218 -2.874,0.393 -0.126,0.004 -0.256,-0.01 -0.377,0.032 z"
         style="fill:#ffffff" />
    </g>
    <g
       transform="matrix(0.674222,0.771834,-0.807145,0.634902,29.82353,-235.17252)"
       id="g627">
      <g
         class="B"
         id="g621">
        <path
           id="use617"
           d="m 261.07201,169.783 c -1.18,0.006 -1.984,-1.945 -0.618,-3.324 0.569,-2.76 2.468,-2.764 4.176,-2.522 1.544,-0.346 2.402,-0.204 2.255,0.651 l -1.62,3.842 z"
           style="fill:#e9e9e9;stroke:#afafaf" />
        <path
           id="use619"
           d="m 267.27601,170.963 c 1.849,-5.771 0.241,-5.013 0.071,-6.969 -1.461,0.036 -2.059,0.775 -1.819,2.197 -0.824,-0.145 -1.168,-0.481 -2.551,-0.402 v 2.079 c -0.922,-0.077 -1.825,0.08 -2.622,1.559 2.307,3.017 4.614,1.507 6.922,1.536 z"
           style="fill:#018f50;stroke:#005b31" />
      </g>
      <path
         id="use623"
         d="m 261.41201,169.107 c 0.901,-0.578 1.802,-1.159 2.79,-1.086 -0.687,-0.286 -0.483,-0.939 -0.451,-1.52 0.886,-0.133 1.51,0.11 2.088,0.418 0.178,-1.231 0.664,-1.538 1.002,-2.288 -0.04,1.223 1.107,1.801 -0.317,3.775 0,0 -4.076,2.205 -5.112,0.702 z"
         style="fill:#00a75d" />
      <path
         id="use625"
         d="m 262.17501,164.671 c -0.37,0.362 -0.661,0.83 -0.859,1.297 -0.257,0.458 -0.762,0.72 -0.958,1.223 -0.42,0.484 0.197,1.022 0.681,0.684 0.373,-0.327 1.034,-0.048 1.224,-0.602 0.181,-0.542 -0.042,-1.208 0.324,-1.681 0.552,-0.399 1.294,-0.385 1.927,-0.215 0.612,0.096 0.706,-0.727 0.912,-1.132 -0.978,-0.155 -1.927,0.218 -2.874,0.393 -0.126,0.004 -0.256,-0.01 -0.377,0.032 z"
         style="fill:#ffffff" />
    </g>
    <g
       transform="matrix(0.470654,0.910378,-0.935291,0.424046,103.23492,-233.07614)"
       id="g639">
      <g
         class="B"
         id="g633">
        <path
           id="use629"
           d="m 261.07201,169.783 c -1.18,0.006 -1.984,-1.945 -0.618,-3.324 0.569,-2.76 2.468,-2.764 4.176,-2.522 1.544,-0.346 2.402,-0.204 2.255,0.651 l -1.62,3.842 z"
           style="fill:#e9e9e9;stroke:#afafaf" />
        <path
           id="use631"
           d="m 267.27601,170.963 c 1.849,-5.771 0.241,-5.013 0.071,-6.969 -1.461,0.036 -2.059,0.775 -1.819,2.197 -0.824,-0.145 -1.168,-0.481 -2.551,-0.402 v 2.079 c -0.922,-0.077 -1.825,0.08 -2.622,1.559 2.307,3.017 4.614,1.507 6.922,1.536 z"
           style="fill:#018f50;stroke:#005b31" />
      </g>
      <path
         id="use635"
         d="m 261.41201,169.107 c 0.901,-0.578 1.802,-1.159 2.79,-1.086 -0.687,-0.286 -0.483,-0.939 -0.451,-1.52 0.886,-0.133 1.51,0.11 2.088,0.418 0.178,-1.231 0.664,-1.538 1.002,-2.288 -0.04,1.223 1.107,1.801 -0.317,3.775 0,0 -4.076,2.205 -5.112,0.702 z"
         style="fill:#00a75d" />
      <path
         id="use637"
         d="m 262.17501,164.671 c -0.37,0.362 -0.661,0.83 -0.859,1.297 -0.257,0.458 -0.762,0.72 -0.958,1.223 -0.42,0.484 0.197,1.022 0.681,0.684 0.373,-0.327 1.034,-0.048 1.224,-0.602 0.181,-0.542 -0.042,-1.208 0.324,-1.681 0.552,-0.399 1.294,-0.385 1.927,-0.215 0.612,0.096 0.706,-0.727 0.912,-1.132 -0.978,-0.155 -1.927,0.218 -2.874,0.393 -0.126,0.004 -0.256,-0.01 -0.377,0.032 z"
         style="fill:#ffffff" />
    </g>
    <g
       transform="matrix(0.373986,0.954169,-0.974128,0.325052,133.30045,-225.37984)"
       id="g651">
      <g
         class="B"
         id="g645">
        <path
           id="use641"
           d="m 261.07201,169.783 c -1.18,0.006 -1.984,-1.945 -0.618,-3.324 0.569,-2.76 2.468,-2.764 4.176,-2.522 1.544,-0.346 2.402,-0.204 2.255,0.651 l -1.62,3.842 z"
           style="fill:#e9e9e9;stroke:#afafaf" />
        <path
           id="use643"
           d="m 267.27601,170.963 c 1.849,-5.771 0.241,-5.013 0.071,-6.969 -1.461,0.036 -2.059,0.775 -1.819,2.197 -0.824,-0.145 -1.168,-0.481 -2.551,-0.402 v 2.079 c -0.922,-0.077 -1.825,0.08 -2.622,1.559 2.307,3.017 4.614,1.507 6.922,1.536 z"
           style="fill:#018f50;stroke:#005b31" />
      </g>
      <path
         id="use647"
         d="m 261.41201,169.107 c 0.901,-0.578 1.802,-1.159 2.79,-1.086 -0.687,-0.286 -0.483,-0.939 -0.451,-1.52 0.886,-0.133 1.51,0.11 2.088,0.418 0.178,-1.231 0.664,-1.538 1.002,-2.288 -0.04,1.223 1.107,1.801 -0.317,3.775 0,0 -4.076,2.205 -5.112,0.702 z"
         style="fill:#00a75d" />
      <path
         id="use649"
         d="m 262.17501,164.671 c -0.37,0.362 -0.661,0.83 -0.859,1.297 -0.257,0.458 -0.762,0.72 -0.958,1.223 -0.42,0.484 0.197,1.022 0.681,0.684 0.373,-0.327 1.034,-0.048 1.224,-0.602 0.181,-0.542 -0.042,-1.208 0.324,-1.681 0.552,-0.399 1.294,-0.385 1.927,-0.215 0.612,0.096 0.706,-0.727 0.912,-1.132 -0.978,-0.155 -1.927,0.218 -2.874,0.393 -0.126,0.004 -0.256,-0.01 -0.377,0.032 z"
         style="fill:#ffffff" />
    </g>
    <g
       transform="matrix(0.236893,0.997088,-1.010009,0.185649,172.60576,-210.30749)"
       id="g663">
      <g
         class="B"
         id="g657">
        <path
           id="use653"
           d="m 261.07201,169.783 c -1.18,0.006 -1.984,-1.945 -0.618,-3.324 0.569,-2.76 2.468,-2.764 4.176,-2.522 1.544,-0.346 2.402,-0.204 2.255,0.651 l -1.62,3.842 z"
           style="fill:#e9e9e9;stroke:#afafaf" />
        <path
           id="use655"
           d="m 267.27601,170.963 c 1.849,-5.771 0.241,-5.013 0.071,-6.969 -1.461,0.036 -2.059,0.775 -1.819,2.197 -0.824,-0.145 -1.168,-0.481 -2.551,-0.402 v 2.079 c -0.922,-0.077 -1.825,0.08 -2.622,1.559 2.307,3.017 4.614,1.507 6.922,1.536 z"
           style="fill:#018f50;stroke:#005b31" />
      </g>
      <path
         id="use659"
         d="m 261.41201,169.107 c 0.901,-0.578 1.802,-1.159 2.79,-1.086 -0.687,-0.286 -0.483,-0.939 -0.451,-1.52 0.886,-0.133 1.51,0.11 2.088,0.418 0.178,-1.231 0.664,-1.538 1.002,-2.288 -0.04,1.223 1.107,1.801 -0.317,3.775 0,0 -4.076,2.205 -5.112,0.702 z"
         style="fill:#00a75d" />
      <path
         id="use661"
         d="m 262.17501,164.671 c -0.37,0.362 -0.661,0.83 -0.859,1.297 -0.257,0.458 -0.762,0.72 -0.958,1.223 -0.42,0.484 0.197,1.022 0.681,0.684 0.373,-0.327 1.034,-0.048 1.224,-0.602 0.181,-0.542 -0.042,-1.208 0.324,-1.681 0.552,-0.399 1.294,-0.385 1.927,-0.215 0.612,0.096 0.706,-0.727 0.912,-1.132 -0.978,-0.155 -1.927,0.218 -2.874,0.393 -0.126,0.004 -0.256,-0.01 -0.377,0.032 z"
         style="fill:#ffffff" />
    </g>
    <g
       transform="matrix(0.127464,1.016886,-1.024178,0.075121,200.84546,-194.54392)"
       id="g675">
      <g
         class="B"
         id="g669">
        <path
           id="use665"
           d="m 261.07201,169.783 c -1.18,0.006 -1.984,-1.945 -0.618,-3.324 0.569,-2.76 2.468,-2.764 4.176,-2.522 1.544,-0.346 2.402,-0.204 2.255,0.651 l -1.62,3.842 z"
           style="fill:#e9e9e9;stroke:#afafaf" />
        <path
           id="use667"
           d="m 267.27601,170.963 c 1.849,-5.771 0.241,-5.013 0.071,-6.969 -1.461,0.036 -2.059,0.775 -1.819,2.197 -0.824,-0.145 -1.168,-0.481 -2.551,-0.402 v 2.079 c -0.922,-0.077 -1.825,0.08 -2.622,1.559 2.307,3.017 4.614,1.507 6.922,1.536 z"
           style="fill:#018f50;stroke:#005b31" />
      </g>
      <path
         id="use671"
         d="m 261.41201,169.107 c 0.901,-0.578 1.802,-1.159 2.79,-1.086 -0.687,-0.286 -0.483,-0.939 -0.451,-1.52 0.886,-0.133 1.51,0.11 2.088,0.418 0.178,-1.231 0.664,-1.538 1.002,-2.288 -0.04,1.223 1.107,1.801 -0.317,3.775 0,0 -4.076,2.205 -5.112,0.702 z"
         style="fill:#00a75d" />
      <path
         id="use673"
         d="m 262.17501,164.671 c -0.37,0.362 -0.661,0.83 -0.859,1.297 -0.257,0.458 -0.762,0.72 -0.958,1.223 -0.42,0.484 0.197,1.022 0.681,0.684 0.373,-0.327 1.034,-0.048 1.224,-0.602 0.181,-0.542 -0.042,-1.208 0.324,-1.681 0.552,-0.399 1.294,-0.385 1.927,-0.215 0.612,0.096 0.706,-0.727 0.912,-1.132 -0.978,-0.155 -1.927,0.218 -2.874,0.393 -0.126,0.004 -0.256,-0.01 -0.377,0.032 z"
         style="fill:#ffffff" />
    </g>
    <g
       transform="matrix(0.113776,1.018508,-1.025096,0.06134,201.92592,-190.67268)"
       id="g687">
      <g
         class="B"
         id="g681">
        <path
           id="use677"
           d="m 261.07201,169.783 c -1.18,0.006 -1.984,-1.945 -0.618,-3.324 0.569,-2.76 2.468,-2.764 4.176,-2.522 1.544,-0.346 2.402,-0.204 2.255,0.651 l -1.62,3.842 z"
           style="fill:#e9e9e9;stroke:#afafaf" />
        <path
           id="use679"
           d="m 267.27601,170.963 c 1.849,-5.771 0.241,-5.013 0.071,-6.969 -1.461,0.036 -2.059,0.775 -1.819,2.197 -0.824,-0.145 -1.168,-0.481 -2.551,-0.402 v 2.079 c -0.922,-0.077 -1.825,0.08 -2.622,1.559 2.307,3.017 4.614,1.507 6.922,1.536 z"
           style="fill:#018f50;stroke:#005b31" />
      </g>
      <path
         id="use683"
         d="m 261.41201,169.107 c 0.901,-0.578 1.802,-1.159 2.79,-1.086 -0.687,-0.286 -0.483,-0.939 -0.451,-1.52 0.886,-0.133 1.51,0.11 2.088,0.418 0.178,-1.231 0.664,-1.538 1.002,-2.288 -0.04,1.223 1.107,1.801 -0.317,3.775 0,0 -4.076,2.205 -5.112,0.702 z"
         style="fill:#00a75d" />
      <path
         id="use685"
         d="m 262.17501,164.671 c -0.37,0.362 -0.661,0.83 -0.859,1.297 -0.257,0.458 -0.762,0.72 -0.958,1.223 -0.42,0.484 0.197,1.022 0.681,0.684 0.373,-0.327 1.034,-0.048 1.224,-0.602 0.181,-0.542 -0.042,-1.208 0.324,-1.681 0.552,-0.399 1.294,-0.385 1.927,-0.215 0.612,0.096 0.706,-0.727 0.912,-1.132 -0.978,-0.155 -1.927,0.218 -2.874,0.393 -0.126,0.004 -0.256,-0.01 -0.377,0.032 z"
         style="fill:#ffffff" />
    </g>
    <g
       transform="matrix(0.033667,1.02429,-1.026751,-0.019124,219.10169,-175.05453)"
       id="g699">
      <g
         class="B"
         id="g693">
        <path
           id="use689"
           d="m 261.07201,169.783 c -1.18,0.006 -1.984,-1.945 -0.618,-3.324 0.569,-2.76 2.468,-2.764 4.176,-2.522 1.544,-0.346 2.402,-0.204 2.255,0.651 l -1.62,3.842 z"
           style="fill:#e9e9e9;stroke:#afafaf" />
        <path
           d="m 267.286,172.735 c -1.018,-3.702 1.866,-4.476 0.061,-8.741 -1.461,0.036 -2.059,0.775 -1.819,2.197 -0.824,-0.145 -1.168,-0.481 -2.551,-0.402 v 2.079 c -0.922,-0.077 -1.825,0.08 -2.622,1.559 1.736,3.32 4.673,0.934 6.932,3.307 z"
           class="H I"
           id="path691" />
      </g>
      <path
         id="use695"
         d="m 261.41201,169.107 c 0.901,-0.578 1.802,-1.159 2.79,-1.086 -0.687,-0.286 -0.483,-0.939 -0.451,-1.52 0.886,-0.133 1.51,0.11 2.088,0.418 0.178,-1.231 0.664,-1.538 1.002,-2.288 -0.04,1.223 1.107,1.801 -0.317,3.775 0,0 -4.076,2.205 -5.112,0.702 z"
         style="fill:#00a75d" />
      <path
         id="use697"
         d="m 262.17501,164.671 c -0.37,0.362 -0.661,0.83 -0.859,1.297 -0.257,0.458 -0.762,0.72 -0.958,1.223 -0.42,0.484 0.197,1.022 0.681,0.684 0.373,-0.327 1.034,-0.048 1.224,-0.602 0.181,-0.542 -0.042,-1.208 0.324,-1.681 0.552,-0.399 1.294,-0.385 1.927,-0.215 0.612,0.096 0.706,-0.727 0.912,-1.132 -0.978,-0.155 -1.927,0.218 -2.874,0.393 -0.126,0.004 -0.256,-0.01 -0.377,0.032 z"
         style="fill:#ffffff" />
    </g>
  </g>
  <g
     id="g2330">
    <path
       d="m 21.588,96.675 c -2.917,0.378 -3.563,2.42 -3.739,4.607 -0.93,0.582 -1.774,1.251 -2.259,2.121 -0.485,0.87 -0.612,1.938 -0.108,3.32 0.132,-1.641 0.987,-2.096 2.186,-1.985 8.403,5.069 18.178,7.882 27.997,7.882 9.819,0 19.595,-2.813 27.998,-7.883 v 0 c 1.199,-0.111 2.054,0.345 2.186,1.985 0.504,-1.382 0.377,-2.45 -0.108,-3.32 -0.485,-0.87 -1.329,-1.539 -2.259,-2.121 -0.176,-2.187 -0.822,-4.228 -3.739,-4.607 1.395,0.873 1.406,1.841 0.756,2.855 v -10e-4 a 47.809,47.809 0 0 1 -49.665,10e-4 c -0.65,-1.014 -0.639,-1.982 0.756,-2.855 z"
       class="F O Q"
       id="path701" />
    <path
       d="m 21.755,105.093 -0.513,-0.276 0.081,-0.64 -0.934,-0.502 -0.478,0.427 -0.5,-0.269 2.165,-1.847 0.499,0.268 z m -0.372,-1.391 0.144,-1.04 -0.781,0.697 z m 0.62,1.515 1.128,-2.399 0.725,0.341 -0.334,1.841 1.2,-1.434 0.727,0.342 -1.128,2.399 -0.45,-0.212 0.888,-1.889 -1.365,1.665 -0.466,-0.219 0.414,-2.112 -0.888,1.889 z m 2.809,1.299 0.999,-2.456 1.044,0.425 q 0.394,0.16 0.544,0.299 0.153,0.138 0.191,0.351 0.038,0.213 -0.05,0.431 -0.112,0.276 -0.349,0.391 -0.235,0.113 -0.578,0.029 0.123,0.159 0.181,0.314 0.06,0.155 0.121,0.514 l 0.105,0.601 -0.593,-0.241 -0.141,-0.68 q -0.074,-0.364 -0.115,-0.467 -0.04,-0.104 -0.108,-0.163 -0.067,-0.06 -0.238,-0.13 l -0.101,-0.041 -0.417,1.025 z m 1.073,-1.216 0.367,0.149 q 0.357,0.145 0.458,0.151 0.101,0.006 0.181,-0.047 0.08,-0.053 0.125,-0.164 0.05,-0.124 0.014,-0.227 -0.034,-0.104 -0.146,-0.173 -0.057,-0.033 -0.358,-0.156 l -0.387,-0.157 z m 1.409,2.209 0.881,-2.501 1.854,0.654 -0.149,0.423 -1.349,-0.476 -0.195,0.554 1.255,0.442 -0.149,0.421 -1.255,-0.442 -0.24,0.681 1.397,0.492 -0.149,0.421 z m 2.906,0.981 0.646,-2.106 -0.752,-0.231 0.132,-0.429 2.015,0.618 -0.132,0.429 -0.75,-0.23 -0.646,2.106 z m 3.645,1.007 -0.564,-0.147 -0.072,-0.641 -1.025,-0.268 -0.364,0.527 -0.549,-0.143 1.669,-2.305 0.548,0.143 z m -0.689,-1.264 -0.105,-1.044 -0.595,0.862 z m 2.335,-1.093 1.041,0.197 q 0.309,0.059 0.455,0.114 0.148,0.054 0.252,0.158 0.105,0.105 0.159,0.257 0.054,0.15 0.022,0.319 -0.035,0.183 -0.163,0.317 -0.127,0.134 -0.31,0.179 0.225,0.114 0.321,0.306 0.096,0.191 0.054,0.417 -0.034,0.178 -0.149,0.331 -0.113,0.152 -0.277,0.226 -0.161,0.073 -0.375,0.056 -0.134,-0.011 -0.638,-0.102 l -0.887,-0.168 z m 0.444,0.533 -0.114,0.602 0.345,0.065 q 0.307,0.058 0.384,0.064 0.138,0.01 0.229,-0.052 0.093,-0.063 0.117,-0.19 0.023,-0.121 -0.03,-0.208 -0.051,-0.089 -0.18,-0.13 -0.077,-0.024 -0.448,-0.094 z m -0.196,1.036 -0.132,0.697 0.487,0.092 q 0.284,0.054 0.364,0.052 0.121,0.001 0.21,-0.067 0.09,-0.069 0.117,-0.208 0.022,-0.117 -0.019,-0.21 -0.041,-0.093 -0.143,-0.15 -0.1,-0.058 -0.459,-0.125 z m 1.889,1.521 0.36,-2.627 1.116,0.153 q 0.421,0.058 0.601,0.155 0.182,0.096 0.272,0.293 0.09,0.197 0.058,0.43 -0.041,0.296 -0.241,0.465 -0.2,0.168 -0.553,0.171 0.158,0.124 0.253,0.259 0.096,0.136 0.244,0.468 l 0.25,0.556 -0.634,-0.087 -0.305,-0.624 q -0.162,-0.334 -0.227,-0.424 -0.064,-0.091 -0.144,-0.131 -0.08,-0.042 -0.263,-0.067 l -0.108,-0.015 -0.15,1.097 z m 0.738,-1.443 0.392,0.054 q 0.382,0.052 0.481,0.033 0.099,-0.019 0.164,-0.091 0.065,-0.071 0.081,-0.19 0.018,-0.133 -0.042,-0.223 -0.059,-0.092 -0.185,-0.131 -0.063,-0.018 -0.386,-0.062 l -0.414,-0.057 z m 4.295,1.999 -0.58,-0.051 -0.178,-0.62 -1.056,-0.093 -0.271,0.581 -0.566,-0.05 1.261,-2.551 0.564,0.049 z m -0.89,-1.131 -0.278,-1.012 -0.443,0.949 z m 1.497,1.142 0.099,-2.201 -0.786,-0.035 0.02,-0.448 2.105,0.094 -0.02,0.448 -0.784,-0.035 -0.099,2.201 z m 3.781,0.057 h -0.582 l -0.231,-0.602 h -1.06 l -0.219,0.602 h -0.568 l 1.033,-2.651 h 0.566 z m -0.986,-1.049 -0.365,-0.984 -0.358,0.984 z m 2.537,0.976 -0.841,-2.593 0.546,-0.043 0.543,1.784 0.339,-1.854 0.635,-0.05 0.61,1.81 0.259,-1.878 0.537,-0.043 -0.432,2.694 -0.566,0.045 -0.683,-1.934 -0.368,2.018 z m 3.09,-0.284 -0.325,-2.632 0.531,-0.066 0.325,2.632 z m 1.041,-0.123 -0.418,-2.618 1.113,-0.178 q 0.42,-0.067 0.62,-0.026 0.202,0.039 0.345,0.201 0.143,0.162 0.18,0.394 0.047,0.295 -0.095,0.515 -0.143,0.219 -0.479,0.324 0.187,0.073 0.317,0.175 0.132,0.102 0.37,0.377 l 0.401,0.46 -0.632,0.101 -0.473,-0.509 q -0.252,-0.273 -0.34,-0.34 -0.088,-0.068 -0.176,-0.084 -0.089,-0.017 -0.271,0.012 l -0.107,0.017 0.174,1.093 z m 0.288,-1.595 0.391,-0.062 q 0.38,-0.061 0.47,-0.108 0.089,-0.047 0.131,-0.134 0.041,-0.087 0.022,-0.205 -0.021,-0.132 -0.105,-0.201 -0.083,-0.071 -0.215,-0.072 -0.066,0.001 -0.387,0.053 l -0.413,0.066 z m 4.689,0.666 -0.57,0.12 -0.351,-0.542 -1.037,0.218 -0.09,0.634 -0.556,0.117 0.464,-2.807 0.554,-0.117 z m -1.181,-0.823 -0.56,-0.888 -0.148,1.037 z m 1.601,-2.022 1.02,-0.288 q 0.303,-0.086 0.458,-0.101 0.157,-0.018 0.296,0.029 0.141,0.047 0.257,0.158 0.116,0.11 0.162,0.275 0.051,0.179 -0.004,0.357 -0.053,0.177 -0.198,0.298 0.252,0.002 0.424,0.13 0.172,0.128 0.234,0.349 0.049,0.174 0.014,0.363 -0.034,0.186 -0.147,0.325 -0.112,0.137 -0.311,0.218 -0.125,0.05 -0.616,0.193 l -0.868,0.246 z m 0.635,0.279 0.167,0.59 0.338,-0.095 q 0.301,-0.085 0.372,-0.115 0.128,-0.053 0.182,-0.149 0.055,-0.098 0.02,-0.222 -0.034,-0.118 -0.12,-0.173 -0.086,-0.057 -0.219,-0.036 -0.079,0.013 -0.443,0.116 z m 0.287,1.015 0.193,0.682 0.477,-0.135 q 0.278,-0.079 0.349,-0.116 0.109,-0.053 0.158,-0.154 0.05,-0.102 0.012,-0.238 -0.033,-0.115 -0.111,-0.179 -0.078,-0.064 -0.195,-0.071 -0.115,-0.007 -0.466,0.092 z m 2.37,0.517 -0.847,-2.513 0.507,-0.171 0.333,0.989 0.994,-0.335 -0.333,-0.989 0.507,-0.171 0.847,2.513 -0.507,0.171 -0.37,-1.099 -0.994,0.335 0.37,1.099 z m 4.754,-1.742 -0.542,0.213 -0.436,-0.476 -0.986,0.388 0.017,0.641 -0.529,0.208 -0.009,-2.846 0.527,-0.207 z m -1.301,-0.616 -0.7,-0.782 0.027,1.047 z m 1.567,0.496 -1.091,-2.417 0.488,-0.22 0.485,1.073 0.501,-1.518 0.656,-0.296 -0.485,1.352 1.626,1.042 -0.631,0.285 -1.176,-0.834 -0.213,0.582 0.33,0.73 z m 2.957,-1.383 -0.997,-1.964 -0.702,0.356 -0.203,-0.4 1.879,-0.954 0.203,0.4 -0.7,0.355 0.997,1.964 z m 1.463,-0.762 -1.272,-2.327 0.47,-0.257 1.272,2.327 z"
       id="path703" />
  </g>
</svg>
